<svg width="30" height="30" viewBox="0 0 30 30" version="1.1" xmlns="http://www.w3.org/2000/svg" xmlns:xlink="http://www.w3.org/1999/xlink">
<title>Group</title>
<desc>Created using Figma</desc>
<g id="Canvas" transform="translate(-2093 -179)">
<g id="Group">
<g id="Vector">
<use xlink:href="#path0_fill" transform="translate(2093 179)"/>
</g>
<g id="Vector">
<use xlink:href="#path1_fill" transform="translate(2102.23 188.231)"/>
</g>
</g>
</g>
<defs>
<path id="path0_fill" d="M 15 0C 6.72923 0 0 6.72865 0 15C 0 23.2713 6.72923 30 15 30C 23.2708 30 30 23.2713 30 15C 30 6.72865 23.2708 0 15 0ZM 15 28.8462C 7.36558 28.8462 1.15385 22.6344 1.15385 15C 1.15385 7.36558 7.36558 1.15385 15 1.15385C 22.6344 1.15385 28.8462 7.36558 28.8462 15C 28.8462 22.6344 22.6344 28.8462 15 28.8462Z"/>
<path id="path1_fill" d="M 11.3696 0.169182C 11.144 -0.0563946 10.7794 -0.0563946 10.5538 0.169182L 5.76937 4.95361L 0.984952 0.169182C 0.759375 -0.0563946 0.394759 -0.0563946 0.169182 0.169182C -0.0563946 0.394759 -0.0563946 0.759375 0.169182 0.984952L 4.95361 5.76937L 0.169182 10.5538C -0.0563946 10.7794 -0.0563946 11.144 0.169182 11.3696C 0.281682 11.4821 0.429375 11.5386 0.577067 11.5386C 0.72476 11.5386 0.872452 11.4821 0.984952 11.3696L 5.76937 6.58514L 10.5538 11.3696C 10.6663 11.4821 10.814 11.5386 10.9617 11.5386C 11.1094 11.5386 11.2571 11.4821 11.3696 11.3696C 11.5951 11.144 11.5951 10.7794 11.3696 10.5538L 6.58514 5.76937L 11.3696 0.984952C 11.5951 0.759375 11.5951 0.394759 11.3696 0.169182Z"/>
</defs>
</svg>
