<svg width="20" height="19" viewBox="0 0 20 19" version="1.1" xmlns="http://www.w3.org/2000/svg" xmlns:xlink="http://www.w3.org/1999/xlink">
<title>email</title>
<desc>Created using Figma</desc>
<g id="Canvas" transform="translate(-169 -3215)">
<g id="email">
<g id="Group">
<g id="Vector">
<use xlink:href="#path0_fill" transform="translate(169 3215)" fill="#FFFFFF" fill-opacity="0.9"/>
</g>
<g id="Vector">
<use xlink:href="#path1_fill" transform="translate(176.029 3217.71)" fill="#FFFFFF" fill-opacity="0.9"/>
</g>
</g>
</g>
</g>
<defs>
<path id="path0_fill" d="M 19.8517 7.77745L 19.8518 7.77741L 17.2979 6.06362L 17.2979 0.335293C 17.2979 0.150122 17.1496 1.36431e-08 16.9667 1.36431e-08L 3.03286 1.36431e-08C 2.84992 1.36431e-08 2.70162 0.150122 2.70162 0.335293L 2.70162 6.06402L 0.14822 7.77741L 0.148264 7.7775C 0.0589612 7.83754 0 7.94018 0 8.05687L 0 18.4402C 0 18.6254 0.148308 18.7755 0.331243 18.7755L 19.6688 18.7755C 19.8517 18.7755 20 18.6254 20 18.4402L 20 8.05687C 20 7.94018 19.941 7.83754 19.8517 7.77745ZM 2.70162 8.95004L 1.66262 8.39216L 2.70162 8.39216L 2.70162 8.95004ZM 0.662486 8.61426L 8.27997 12.7044L 0.662486 17.8155L 0.662486 8.61426ZM 9.99987 12.3548L 18.5697 18.1049L 1.43013 18.1049L 9.99987 12.3548ZM 11.7199 12.7044L 19.3375 8.61426L 19.3375 17.8156L 11.7199 12.7044ZM 17.2979 8.39216L 18.3374 8.39216L 17.2979 8.95026L 17.2979 8.39216ZM 18.5697 7.72157L 17.2979 7.72157L 17.2979 6.86814L 18.5697 7.72157ZM 16.6355 0.670586L 16.6355 9.30599L 11.0915 12.2828L 10.1828 11.6731C 10.0719 11.5987 9.92774 11.5987 9.81684 11.6731L 8.90836 12.2827L 3.3641 9.30577L 3.3641 0.670586L 16.6355 0.670586ZM 2.70162 7.72157L 1.43044 7.72157L 2.70162 6.86859L 2.70162 7.72157Z"/>
<path id="path1_fill" d="M 2.97032 6.11226L 5.6094 6.11226C 5.79233 6.11226 5.94064 5.96213 5.94064 5.77696C 5.94064 5.59179 5.79233 5.44167 5.6094 5.44167L 2.97032 5.44167C 1.69777 5.44167 0.662485 4.39372 0.662485 3.10562L 0.662485 3.00668C 0.662485 1.71858 1.69777 0.67063 2.97032 0.67063C 4.24287 0.67063 5.27816 1.71858 5.27816 3.00668L 5.27816 3.25404C 5.27816 3.53287 5.05406 3.75975 4.77855 3.75975C 4.50305 3.75975 4.27895 3.53291 4.27895 3.25404L 4.27895 2.78409C 4.27895 1.98547 3.63709 1.33572 2.84811 1.33572C 2.05914 1.33572 1.41728 1.98543 1.41728 2.78409C 1.41728 3.58272 2.05914 4.23243 2.84811 4.23243C 3.2089 4.23243 3.53869 4.0963 3.79061 3.87246C 3.99572 4.20699 4.36176 4.43029 4.77855 4.43029C 5.41931 4.43029 5.94064 3.90263 5.94064 3.254L 5.94064 3.00664C 5.94064 1.34877 4.60816 -1.11873e-07 2.97032 -1.11873e-07C 1.33248 -1.11873e-07 -1.99479e-07 1.34877 -1.99479e-07 3.00664L -1.99479e-07 3.10557C -1.99479e-07 4.76348 1.33248 6.11226 2.97032 6.11226ZM 2.84811 3.56184C 2.42443 3.56184 2.07976 3.21296 2.07976 2.78409C 2.07976 2.35523 2.42448 2.0063 2.84811 2.0063C 3.27175 2.0063 3.61646 2.35523 3.61646 2.78409C 3.61646 3.21296 3.2718 3.56184 2.84811 3.56184Z"/>
</defs>
</svg>
