<svg width="20" height="20" viewBox="0 0 20 20" version="1.1" xmlns="http://www.w3.org/2000/svg" xmlns:xlink="http://www.w3.org/1999/xlink">
<title>Group</title>
<desc>Created using Figma</desc>
<g id="Canvas" transform="translate(-169 -3284)">
<g id="Group">
<g id="Vector">
<use xlink:href="#path0_fill" transform="translate(169 3284)" fill="#FFFFFF" fill-opacity="0.8"/>
</g>
</g>
</g>
<defs>
<path id="path0_fill" d="M 18.8955 1.56417e-11L 1.10387 1.56417e-11C 0.494632 1.56417e-11 0 0.493644 0 1.10387L 0 18.8955C 0 19.5057 0.494632 20 1.10387 20L 10.6823 20L 10.6823 12.2548L 8.07614 12.2548L 8.07614 9.23599L 10.6823 9.23599L 10.6823 7.00981C 10.6823 4.42699 12.2594 3.01982 14.564 3.01982C 15.6688 3.01982 16.6163 3.10248 16.8926 3.13838L 16.8926 5.83811L 15.2941 5.83877C 14.041 5.83877 13.7993 6.4345 13.7993 7.30817L 13.7993 9.235L 16.7888 9.235L 16.3979 12.2535L 13.799 12.2535L 13.799 19.999L 18.8951 19.999C 19.505 19.999 20 19.5041 20 18.8955L 20 1.10321C 19.9997 0.493644 19.5054 1.56417e-11 18.8955 1.56417e-11Z"/>
</defs>
</svg>
