<svg width="20" height="20" viewBox="0 0 20 20" version="1.1" xmlns="http://www.w3.org/2000/svg" xmlns:xlink="http://www.w3.org/1999/xlink">
<title>Exclude</title>
<desc>Created using Figma</desc>
<g id="Canvas" transform="translate(-252 -3284)">
<g id="Exclude">
<use xlink:href="#path0_fill" transform="translate(252 3284)" fill="#FFFFFF" fill-opacity="0.8"/>
</g>
</g>
<defs>
<path id="path0_fill" fill-rule="evenodd" d="M 20 14.9548C 20 17.7373 17.7372 20 14.9549 20L 5.04517 20C 2.26315 20 0 17.7373 0 14.9548L 0 5.04517C 0 2.26318 2.26315 0 5.04517 0L 14.9549 0C 17.7372 0 20 2.26318 20 5.04517L 20 14.9548ZM 5.04521 2.17651L 14.955 2.17651C 16.5368 2.17651 17.8237 3.46362 17.8237 5.04517L 17.8237 14.9548C 17.8237 16.5366 16.5368 17.8235 14.955 17.8235L 5.04521 17.8235C 3.46366 17.8235 2.17667 16.5366 2.17667 14.9548L 2.17667 5.04517C 2.17667 3.46338 3.46366 2.17651 5.04521 2.17651ZM 4.84907 9.99976C 4.84907 12.8401 7.15992 15.1509 9.99989 15.1509C 12.8402 15.1509 15.151 12.8401 15.151 9.99976C 15.151 7.15967 12.8402 4.84888 9.99989 4.84888C 7.15992 4.84888 4.84907 7.15967 4.84907 9.99976ZM 14.0976 4.69531C 14.0976 5.36743 14.6444 5.91406 15.3168 5.91406C 15.9887 5.91406 16.5355 5.36743 16.5355 4.69531C 16.5355 4.02319 15.9887 3.47656 15.3168 3.47656C 14.6444 3.47656 14.0976 4.02319 14.0976 4.69531ZM 7.0253 9.99976C 7.0253 8.36035 8.36039 7.02588 9.99989 7.02588C 11.64 7.02588 12.9742 8.36035 12.9742 9.99976C 12.9742 11.6399 11.64 12.9749 9.99989 12.9749C 8.36039 12.9749 7.0253 11.6399 7.0253 9.99976Z"/>
</defs>
</svg>
