<svg width="20" height="20" viewBox="0 0 20 20" version="1.1" xmlns="http://www.w3.org/2000/svg" xmlns:xlink="http://www.w3.org/1999/xlink">
<title>Group</title>
<desc>Created using Figma</desc>
<g id="Canvas" transform="translate(-169 -3121)">
<g id="Group">
<g id="Vector">
<use xlink:href="#path0_fill" transform="translate(176.667 3125)" fill="#FFFFFF" fill-opacity="0.9"/>
</g>
<g id="Vector">
<use xlink:href="#path1_fill" transform="translate(172.549 3121)" fill="#FFFFFF" fill-opacity="0.9"/>
</g>
<g id="Vector">
<use xlink:href="#path2_fill" transform="translate(169 3135.33)" fill="#FFFFFF" fill-opacity="0.9"/>
</g>
</g>
</g>
<defs>
<path id="path0_fill" d="M 2.33333 4.66667C 3.62 4.66667 4.66667 3.61967 4.66667 2.33333C 4.66667 1.047 3.62 0 2.33333 0C 1.04667 0 0 1.047 0 2.33333C 0 3.61967 1.04667 4.66667 2.33333 4.66667ZM 2.33333 0.666667C 3.25233 0.666667 4 1.41433 4 2.33333C 4 3.25233 3.25233 4 2.33333 4C 1.41433 4 0.666667 3.25233 0.666667 2.33333C 0.666667 1.41433 1.41433 0.666667 2.33333 0.666667Z"/>
<path id="path1_fill" d="M 6.39235 18.2523L 11.506 10.8667C 13.424 8.30967 13.1467 4.10667 10.9123 1.87267C 9.70501 0.665 8.09968 0 6.39235 0C 4.68501 0 3.07968 0.665 1.87235 1.87233C -0.361987 4.10633 -0.639321 8.30933 1.27101 10.8563L 6.39235 18.2523ZM 2.34368 2.34367C 3.42535 1.26233 4.86301 0.666667 6.39235 0.666667C 7.92168 0.666667 9.35935 1.26233 10.441 2.34367C 12.4577 4.36 12.706 8.156 10.9653 10.4767L 6.39235 17.081L 1.81201 10.4667C 0.0786796 8.156 0.327346 4.36 2.34368 2.34367Z"/>
<path id="path2_fill" d="M 14.039 0.00260381C 13.8557 -0.0197295 13.6903 0.111604 13.669 0.294604C 13.6477 0.477604 13.7783 0.64327 13.961 0.664604C 17.4663 1.07727 19.3333 2.18927 19.3333 2.8336C 19.3333 3.73827 15.7827 5.00027 10 5.00027C 4.21733 5.00027 0.666667 3.73827 0.666667 2.8336C 0.666667 2.18927 2.53367 1.07727 6.039 0.664604C 6.22167 0.64327 6.35233 0.47727 6.331 0.294604C 6.30933 0.111604 6.144 -0.0203962 5.961 0.00260381C 2.45133 0.415937 0 1.57994 0 2.8336C 0 4.2416 3.435 5.66694 10 5.66694C 16.565 5.66694 20 4.2416 20 2.8336C 20 1.57994 17.5487 0.415937 14.039 0.00260381Z"/>
</defs>
</svg>
