<svg width="20" height="20" viewBox="0 0 20 20" version="1.1" xmlns="http://www.w3.org/2000/svg" xmlns:xlink="http://www.w3.org/1999/xlink">
<title>phone-reciever</title>
<desc>Created using Figma</desc>
<g id="Canvas" transform="translate(-169 -3175)">
<g id="phone-reciever">
<g id="Group">
<g id="Group">
<g id="Group">
<g id="Vector">
<use xlink:href="#path0_fill" transform="translate(180.756 3180.63)" fill="#FFFFFF" fill-opacity="0.9"/>
</g>
<g id="Vector">
<use xlink:href="#path1_fill" transform="translate(180.754 3178.66)" fill="#FFFFFF" fill-opacity="0.9"/>
</g>
<g id="Vector">
<use xlink:href="#path2_fill" transform="translate(180.753 3176.75)" fill="#FFFFFF" fill-opacity="0.9"/>
</g>
<g id="Vector">
<use xlink:href="#path3_fill" transform="translate(169 3175)" fill="#FFFFFF" fill-opacity="0.9"/>
</g>
<g id="Vector">
<use xlink:href="#path4_fill" transform="translate(183.199 3189.85)" fill="#FFFFFF" fill-opacity="0.9"/>
</g>
<g id="Vector">
<use xlink:href="#path5_fill" transform="translate(170.719 3176.36)" fill="#FFFFFF" fill-opacity="0.9"/>
</g>
</g>
</g>
</g>
</g>
</g>
<defs>
<path id="path0_fill" d="M 2.58863 2.17872C 2.65572 2.33693 2.58213 2.52055 2.42379 2.5876C 2.26549 2.65465 2.08176 2.5811 2.01467 2.42289C 1.92865 2.22105 1.82244 2.02639 1.69937 1.84408C 1.57492 1.65981 1.43292 1.4886 1.27851 1.33363L 1.27782 1.33428C 1.12079 1.17738 0.949451 1.03544 0.767029 0.913027C 0.583366 0.788656 0.389833 0.682542 0.19045 0.597919C 0.0321462 0.53152 -0.0421028 0.348556 0.0243363 0.190348C 0.0907755 0.0321407 0.27385 -0.0420964 0.432154 0.0243351C 0.675753 0.127869 0.905725 0.25286 1.11681 0.395456C 1.3357 0.542592 1.53832 0.709912 1.72071 0.892223L 1.72002 0.892876L 1.72071 0.893529C 1.90509 1.07777 2.07251 1.28026 2.21709 1.4951C 2.36062 1.70798 2.48569 1.93716 2.58863 2.17872Z"/>
<path id="path1_fill" d="M 4.57675 4.19179C 4.621 4.35849 4.52201 4.52969 4.35524 4.57398C 4.18848 4.61827 4.01713 4.51931 3.97285 4.35261C 3.85233 3.90663 3.67317 3.47953 3.4432 3.083C 3.21326 2.6865 2.92855 2.31733 2.59887 1.98724C 2.26864 1.65714 1.89922 1.37263 1.50244 1.1428C 1.10633 0.912966 0.678965 0.733921 0.232061 0.614122C 0.0652604 0.569867 -0.0337603 0.398595 0.0105869 0.231929C 0.0548361 0.0652293 0.226244 -0.0336994 0.392979 0.0105556C 0.892041 0.145313 1.37019 0.345881 1.81451 0.60305C 2.26275 0.862832 2.67577 1.1799 3.04123 1.54517C 3.40673 1.91045 3.72402 2.32321 3.98324 2.77115C 4.24122 3.21517 4.44188 3.69306 4.57675 4.19179Z"/>
<path id="path2_fill" d="M 6.499 6.12841C 6.53158 6.29769 6.42149 6.46178 6.25207 6.49434C 6.08269 6.5269 5.91853 6.41687 5.88595 6.24759C 5.7485 5.55613 5.50876 4.89205 5.1778 4.27545L 5.16934 4.25918C 4.83966 3.64846 4.41949 3.08334 3.9198 2.58396L 3.9185 2.58265C 3.41493 2.08001 2.84354 1.65617 2.2266 1.32607C 1.61094 0.996628 0.94514 0.756377 0.252611 0.618353C 0.0832285 0.585791 -0.0268714 0.421084 0.00571092 0.252458C 0.0389468 0.0831784 0.2031 -0.0268549 0.371829 0.00570763C 1.12364 0.154803 1.84679 0.417197 2.51978 0.776594C 3.19276 1.1373 3.81363 1.59761 4.35886 2.1419L 4.36017 2.14321C 4.90022 2.68361 5.35696 3.29759 5.71657 3.96299L 5.72634 3.98059C 6.08792 4.65242 6.34916 5.37575 6.499 6.12841Z"/>
<path id="path3_fill" d="M 19.8726 16.347C 20.0114 16.4486 20.0414 16.644 19.9398 16.7826C 19.8382 16.9213 19.6427 16.9513 19.5039 16.8497L 14.6296 13.2791L 14.3136 13.5949L 13.8087 14.0995C 12.6074 15.3001 10.8054 15.0162 9.14672 14.007C 8.52458 13.6288 7.92192 13.1483 7.38319 12.6098C 6.84504 12.0714 6.36363 11.4691 5.98512 10.8473C 4.97403 9.18903 4.68673 7.38878 5.88091 6.19602L 6.71086 5.36654L 3.35311 0.786815L 1.8371 2.29083L 1.83776 2.29148L 1.82472 2.30448C 0.634467 3.49401 0.322402 5.07158 0.932185 6.98578C 1.5654 8.97353 3.17651 11.3188 5.80852 13.9687L 5.9147 14.0754L 5.91535 14.0748C 6.09519 14.2545 6.24304 14.4009 6.35837 14.5123C 8.91413 16.989 11.1858 18.506 13.1129 19.0953C 14.969 19.663 16.5013 19.3557 17.6511 18.2059L 17.6668 18.1909L 17.7039 18.1538L 18.1052 17.7397C 18.2251 17.6166 18.4232 17.614 18.5463 17.7338C 18.6694 17.8536 18.672 18.0516 18.5521 18.1746L 18.1509 18.5887L 18.1496 18.59L 18.1111 18.6284L 18.0935 18.648C 16.7691 19.9723 15.0263 20.3317 12.9319 19.691C 10.9091 19.0725 8.55135 17.5053 5.92326 14.9589C 5.74215 14.7838 5.59168 14.6354 5.47312 14.5169L 5.47377 14.5162L 5.47312 14.5155L 5.36626 14.4081C 2.6632 11.6866 1.00192 9.25611 0.338089 7.17394C -0.348591 5.01818 0.0162529 3.22773 1.38236 1.86239L 1.3954 1.84939L 1.39605 1.85005L 1.3967 1.84939L 3.17007 0.0901663C 3.18115 0.0790944 3.19288 0.0693289 3.20527 0.0602166C 3.34403 -0.0413576 3.53949 -0.0114079 3.64109 0.127269L 7.35842 5.1953C 7.46394 5.31771 7.45875 5.50391 7.34276 5.61982L 6.3232 6.63876C 5.37338 7.58804 5.6509 9.10117 6.51801 10.5231C 6.86851 11.0987 7.31799 11.6606 7.82617 12.1684C 8.33432 12.6763 8.89655 13.1255 9.47179 13.4751C 10.8946 14.3411 12.4093 14.6146 13.3663 13.6581L 13.8712 13.1536L 14.3761 12.649L 14.3768 12.6496C 14.4836 12.5429 14.6556 12.5266 14.7813 12.6184L 19.8726 16.347Z"/>
<path id="path4_fill" d="M 4.31501 2.85661C 4.45377 2.95812 4.48373 3.15349 4.3821 3.29217C 4.28053 3.43085 4.08503 3.46083 3.94627 3.35925L 2.67328 2.42761L 1.40034 1.49522L 0.127346 0.562862C -0.0114146 0.461353 -0.0413827 0.265978 0.0602532 0.127268C 0.161824 -0.0114081 0.357318 -0.0413581 0.496078 0.0602161L 1.76904 0.992577L 3.04201 1.9249L 4.31501 2.85661Z"/>
<path id="path5_fill" d="M 0.0602511 0.495777C -0.0413848 0.357101 -0.0114169 0.161758 0.127377 0.0602166C 0.266137 -0.0413576 0.461599 -0.011408 0.563202 0.127269L 1.49544 1.39949L 2.42837 2.67107L 3.36129 3.94329C 3.4629 4.08197 3.43293 4.27731 3.29417 4.37885C 3.15541 4.48039 2.95995 4.45047 2.85834 4.3118L 1.92607 3.03892L 0.993144 1.76735L 0.0602511 0.495777Z"/>
</defs>
</svg>
