<svg width="23" height="20" viewBox="0 0 23 20" version="1.1" xmlns="http://www.w3.org/2000/svg" xmlns:xlink="http://www.w3.org/1999/xlink">
<title>Subtract</title>
<desc>Created using Figma</desc>
<g id="Canvas" transform="translate(-209 -3284)">
<g id="Subtract">
<use xlink:href="#path0_fill" transform="translate(209 3284)" fill="#FFFFFF" fill-opacity="0.8"/>
</g>
</g>
<defs>
<path id="path0_fill" fill-rule="evenodd" d="M 22.9578 0.751857L 19.0594 19.5033C 18.9676 19.9462 18.4484 20.1466 18.0821 19.8805L 12.7605 16.017C 12.4374 15.7824 11.9969 15.7948 11.6876 16.047L 8.7371 18.4521C 8.39471 18.7321 7.8787 18.5761 7.74758 18.1544L 5.69884 11.5656L 0.405753 9.58999C -0.131921 9.38858 -0.136514 8.62954 0.399634 8.423L 22.1225 0.0428723C 22.583 -0.135106 23.0581 0.268214 22.9578 0.751857ZM 7.41755 10.5141L 17.7622 4.14273C 17.948 4.02871 18.1393 4.27993 17.9795 4.42813L 9.4423 12.3639C 9.14214 12.643 8.94868 13.017 8.89376 13.4228L 8.60308 15.578C 8.56437 15.8656 8.16036 15.8942 8.0808 15.6156L 6.96236 11.6857C 6.83445 11.2375 7.02106 10.7587 7.41755 10.5141Z"/>
</defs>
</svg>
