<svg width="104" height="104" viewBox="0 0 104 104" version="1.1" xmlns="http://www.w3.org/2000/svg" xmlns:xlink="http://www.w3.org/1999/xlink">
<title>brickwall</title>
<desc>Created using Figma</desc>
<g id="Canvas" transform="translate(-398 -1424)">
<g id="brickwall">
<g id="Group">
<g id="Vector">
<use xlink:href="#path0_fill" transform="matrix(-1 0 0 -1 502 1528)" fill="#FCCC88"/>
</g>
<g id="SVGCleanerId 0">
<use xlink:href="#path1_fill" transform="matrix(-1 0 0 -1 502 1528)" fill="#CD4F38"/>
</g>
<g id="Vector">
<use xlink:href="#path2_fill" transform="matrix(-1 0 0 -1 421.31 1528)" fill="#DC6C33"/>
</g>
<g id="SVGCleanerId 1">
<use xlink:href="#path3_fill" transform="matrix(-1 0 0 -1 467.931 1441.93)" fill="#CD4F38"/>
</g>
<g id="SVGCleanerId 2">
<use xlink:href="#path4_fill" transform="matrix(-1 0 0 -1 502 1441.93)" fill="#DC6C33"/>
</g>
<g id="SVGCleanerId 3">
<use xlink:href="#path5_fill" transform="matrix(-1 0 0 -1 502 1470.62)" fill="#DC6C33"/>
</g>
<g id="SVGCleanerId 4">
<use xlink:href="#path6_fill" transform="matrix(-1 0 0 -1 421.31 1470.62)" fill="#CD4F38"/>
</g>
<g id="Vector">
<use xlink:href="#path7_fill" transform="matrix(-1 0 0 -1 467.931 1499.31)" fill="#ED634C"/>
</g>
<g id="SVGCleanerId 5">
<use xlink:href="#path8_fill" transform="matrix(-1 0 0 -1 502 1499.31)" fill="#EC9130"/>
</g>
<g id="Group">
<g id="SVGCleanerId 0 1">
<use xlink:href="#path1_fill" transform="matrix(-1 0 0 -1 502 1528)" fill="#CD4F38"/>
</g>
</g>
<g id="Vector">
<use xlink:href="#path2_fill" transform="matrix(-1 0 0 -1 421.31 1528)" fill="#EC9130"/>
</g>
<g id="Group">
<g id="SVGCleanerId 1 1">
<use xlink:href="#path3_fill" transform="matrix(-1 0 0 -1 467.931 1441.93)" fill="#CD4F38"/>
</g>
</g>
<g id="Group">
<g id="SVGCleanerId 2 1">
<use xlink:href="#path4_fill" transform="matrix(-1 0 0 -1 502 1441.93)" fill="#DC6C33"/>
</g>
</g>
<g id="Group">
<g id="SVGCleanerId 3 1">
<use xlink:href="#path5_fill" transform="matrix(-1 0 0 -1 502 1470.62)" fill="#DC6C33"/>
</g>
</g>
<g id="Group">
<g id="SVGCleanerId 4 1">
<use xlink:href="#path6_fill" transform="matrix(-1 0 0 -1 421.31 1470.62)" fill="#CD4F38"/>
</g>
</g>
<g id="Vector">
<use xlink:href="#path7_fill" transform="matrix(-1 0 0 -1 467.931 1499.31)" fill="#DC6C33"/>
</g>
<g id="Group">
<g id="SVGCleanerId 5 1">
<use xlink:href="#path8_fill" transform="matrix(-1 0 0 -1 502 1499.31)" fill="#EC9130"/>
</g>
</g>
</g>
</g>
</g>
<defs>
<path id="path0_fill" d="M 100.414 57.3794L 100.414 46.6206C 102.392 46.6147 103.994 45.0127 104 43.0345L 104 32.2757C 103.994 30.2975 102.392 28.6953 100.414 28.6896L 100.414 17.9311C 102.392 17.9252 103.994 16.3231 104 14.3449L 104 3.58617C 103.994 1.60794 102.392 0.0056875 100.414 0L 84.276 0C 82.2977 0.0056875 80.6955 1.60794 80.6898 3.58617L 69.9311 3.58617C 69.9252 1.60794 68.3231 0.0056875 66.3449 0L 3.58617 0C 1.60794 0.0056875 0.0056875 1.60794 0 3.58617L 0 14.3449C 0.00589062 16.3231 1.60794 17.9254 3.58617 17.9311L 3.58617 28.6898C 1.60794 28.6955 0.0056875 30.2977 0 32.276L 0 43.0347C 0.00589062 45.0129 1.60794 46.6152 3.58617 46.6208L 3.58617 57.3796C 1.60794 57.385 0.0056875 58.9873 0 60.9655L 0 71.7243C 0.00589062 73.7025 1.60794 75.3045 3.58617 75.3104L 3.58617 86.0691C 1.60794 86.0748 0.0056875 87.6769 0 89.6551L 0 100.414C 0.00589062 102.392 1.60794 103.994 3.58617 104L 19.724 104C 21.7023 103.994 23.3045 102.392 23.3102 100.414L 34.0689 100.414C 34.0748 102.392 35.6769 103.994 37.6551 104L 100.414 104C 102.392 103.994 103.994 102.392 104 100.414L 104 89.6551C 103.994 87.6769 102.392 86.0746 100.414 86.0689L 100.414 75.3102C 102.392 75.3043 103.994 73.7023 104 71.724L 104 60.9653C 103.994 58.9873 102.392 57.385 100.414 57.3794Z"/>
<path id="path1_fill" d="M 3.58617 0L 66.3449 0C 68.3256 0 69.9311 1.6055 69.9311 3.58617L 69.9311 14.3449C 69.9311 16.3256 68.3256 17.9311 66.3449 17.9311L 3.58617 17.9311C 1.6055 17.9311 0 16.3254 0 14.3449L 0 3.58617C 0 1.6055 1.6055 0 3.58617 0Z"/>
<path id="path2_fill" d="M 3.58617 0L 19.724 0C 21.7045 0 23.3102 1.6055 23.3102 3.58617L 23.3102 14.3449C 23.3102 16.3256 21.7045 17.9311 19.724 17.9311L 3.58617 17.9311C 1.6055 17.9311 9.11909e-07 16.3256 9.11909e-07 14.3449L 9.11909e-07 3.58617C -0.000202213 1.6055 1.6055 0 3.58617 0Z"/>
<path id="path3_fill" d="M 3.58617 -1.98364e-07L 66.3449 -1.98364e-07C 68.3256 -1.98364e-07 69.9311 1.6057 69.9311 3.58617L 69.9311 14.3449C 69.9311 16.3256 68.3254 17.9311 66.3449 17.9311L 3.58617 17.9311C 1.6055 17.9311 -1.98364e-07 16.3254 -1.98364e-07 14.3449L -1.98364e-07 3.58617C -1.98364e-07 1.6057 1.6057 -1.98364e-07 3.58617 -1.98364e-07Z"/>
<path id="path4_fill" d="M 3.58617 -1.98364e-07L 19.724 -1.98364e-07C 21.7047 -1.98364e-07 23.3102 1.6057 23.3102 3.58617L 23.3102 14.3449C 23.3102 16.3256 21.7047 17.9311 19.724 17.9311L 3.58617 17.9311C 1.6055 17.9311 0 16.3254 0 14.3449L 0 3.58617C 0 1.6057 1.6055 -1.98364e-07 3.58617 -1.98364e-07Z"/>
<path id="path5_fill" d="M 3.58617 3.47137e-07L 66.3449 3.47137e-07C 68.3256 3.47137e-07 69.9311 1.6057 69.9311 3.58617L 69.9311 14.3449C 69.9311 16.3256 68.3256 17.9311 66.3449 17.9311L 3.58617 17.9311C 1.6055 17.9311 0 16.3254 0 14.3447L 0 3.58597C 0 1.6055 1.6055 3.47137e-07 3.58617 3.47137e-07Z"/>
<path id="path6_fill" d="M 3.58617 3.47137e-07L 19.724 3.47137e-07C 21.7047 3.47137e-07 23.3102 1.6057 23.3102 3.58617L 23.3102 14.3449C 23.3102 16.3256 21.7045 17.9311 19.724 17.9311L 3.58617 17.9311C 1.6055 17.9311 9.11909e-07 16.3256 9.11909e-07 14.3449L 9.11909e-07 3.58617C -0.000202213 1.6055 1.6055 3.47137e-07 3.58617 3.47137e-07Z"/>
<path id="path7_fill" d="M 3.58617 -5.45502e-07L 66.3449 -5.45502e-07C 68.3256 -5.45502e-07 69.9311 1.6055 69.9311 3.58617L 69.9311 14.3449C 69.9311 16.3256 68.3254 17.9311 66.3449 17.9311L 3.58617 17.9311C 1.6055 17.9311 -1.98364e-07 16.3256 -1.98364e-07 14.3449L -1.98364e-07 3.58617C -1.98364e-07 1.6057 1.6057 -5.45502e-07 3.58617 -5.45502e-07Z"/>
<path id="path8_fill" d="M 3.58617 -5.45502e-07L 19.724 -5.45502e-07C 21.7047 -5.45502e-07 23.3102 1.6055 23.3102 3.58617L 23.3102 14.3449C 23.3102 16.3256 21.7047 17.9311 19.724 17.9311L 3.58617 17.9311C 1.6055 17.9311 0 16.3256 0 14.3449L 0 3.58617C 0 1.6057 1.6055 -5.45502e-07 3.58617 -5.45502e-07Z"/>
</defs>
</svg>
