<svg width="128" height="124" viewBox="0 0 128 124" version="1.1" xmlns="http://www.w3.org/2000/svg" xmlns:xlink="http://www.w3.org/1999/xlink">
<title>smarthome</title>
<desc>Created using Figma</desc>
<g id="Canvas" transform="translate(-86 -1414)">
<g id="smarthome">
<g id="Group">
<g id="Vector">
<use xlink:href="#path0_fill" transform="translate(131.503 1417.39)" fill="#32D2E6"/>
</g>
</g>
<g id="Group">
<g id="Vector">
<use xlink:href="#path1_fill" transform="translate(194.743 1438.26)" fill="#32D2E6"/>
</g>
</g>
<g id="Group">
<g id="Vector">
<use xlink:href="#path2_fill" transform="translate(101.193 1455.57)" fill="#32D2E6"/>
</g>
</g>
<g id="Group">
<g id="Group">
<g id="Vector">
<use xlink:href="#path3_fill" transform="translate(117.146 1431.38)" fill="#FFFFFF"/>
</g>
</g>
<g id="Group">
<g id="Vector">
<use xlink:href="#path4_fill" transform="translate(113.995 1427.04)" fill="#0A465A"/>
</g>
</g>
<g id="Group">
<g id="Vector">
<use xlink:href="#path5_fill" transform="translate(116.652 1433.53)" fill="#003C50"/>
</g>
</g>
<g id="Group">
<g id="Vector">
<use xlink:href="#path6_fill" transform="translate(125.449 1435.62)" fill="#0A465A"/>
</g>
</g>
<g id="Group">
<g id="Vector">
<use xlink:href="#path7_fill" transform="translate(125.449 1427.32)" fill="#003C50"/>
</g>
</g>
<g id="Group">
<g id="Vector">
<use xlink:href="#path8_fill" transform="translate(113.995 1427.04)" fill="#145064"/>
</g>
</g>
<g id="Group">
<g id="Group">
<g id="Vector">
<use xlink:href="#path9_fill" transform="translate(119.943 1416.25)" fill="#145064"/>
</g>
</g>
<g id="Group">
<g id="Vector">
<use xlink:href="#path10_fill" transform="matrix(0.820689 0.571324 -0.575876 0.817501 143.384 1430.31)" fill="#003C50"/>
</g>
</g>
<g id="Group">
<g id="Vector">
<use xlink:href="#path11_fill" transform="translate(120.545 1414)" fill="#145064"/>
</g>
</g>
<g id="Group">
<g id="Vector">
<use xlink:href="#path12_fill" transform="translate(120.847 1421.21)" fill="#0A465A"/>
</g>
</g>
<g id="Group">
<g id="Vector">
<use xlink:href="#path13_fill" transform="translate(131.023 1420.75)" fill="#145A6E"/>
</g>
</g>
</g>
</g>
<g id="Group">
<g id="Vector">
<use xlink:href="#path14_fill" transform="translate(87.5234 1493.06)" fill="#2DCDE1"/>
</g>
</g>
<g id="Group">
<g id="Vector">
<use xlink:href="#path15_fill" transform="translate(112.562 1497.04)" fill="#3CDCF0"/>
</g>
</g>
<g id="Group">
<g id="Group">
<g id="Vector">
<use xlink:href="#path16_fill" transform="translate(176.818 1415.59)" fill="#464646"/>
</g>
</g>
<g id="Group">
<g id="Vector">
<use xlink:href="#path17_fill" transform="translate(185.61 1415.59)" fill="#505050"/>
</g>
</g>
<g id="Group">
<g id="Vector">
<use xlink:href="#path18_fill" transform="matrix(0.966281 -0.257375 0.260232 0.965515 177.964 1421.42)" fill="#B4E6F0"/>
</g>
</g>
<g id="Group">
<g id="Vector">
<use xlink:href="#path19_fill" transform="translate(183.946 1423.16)" fill="#145A6E"/>
</g>
</g>
<g id="Group">
<g id="Vector">
<use xlink:href="#path20_fill" transform="translate(183.178 1426.48)" fill="#003C50"/>
</g>
</g>
<g id="Group">
<g id="Vector">
<use xlink:href="#path21_fill" transform="translate(184.194 1427.28)" fill="#145A6E"/>
</g>
</g>
<g id="Group">
<g id="Vector">
<use xlink:href="#path22_fill" transform="translate(188.236 1427.28)" fill="#1E6478"/>
</g>
</g>
<g id="Group">
<g id="Vector">
<use xlink:href="#path23_fill" transform="matrix(0.966281 -0.257375 0.260232 0.965515 185.637 1440.34)" fill="#003C50"/>
</g>
</g>
<g id="Group">
<g id="Group">
<g id="Vector">
<use xlink:href="#path24_fill" transform="translate(188.38 1431.59)" fill="#003C50"/>
</g>
</g>
<g id="Group">
<g id="Group">
<g id="Vector">
<use xlink:href="#path25_fill" transform="translate(189.34 1433.11)" fill="#003C50"/>
</g>
</g>
</g>
</g>
<g id="Group">
<g id="Vector">
<use xlink:href="#path26_fill" transform="matrix(0.96638 -0.257276 0.260131 0.965616 191.019 1446.08)" fill="#646464"/>
</g>
</g>
<g id="Group" opacity="0.3">
<g id="Vector" opacity="0.3">
<use xlink:href="#path27_fill" transform="translate(178.885 1418.97)" fill="#FFFFFF"/>
</g>
</g>
</g>
<g id="Group">
<g id="Group">
<g id="Vector">
<use xlink:href="#path28_fill" transform="translate(86 1464.61)" fill="#464646"/>
</g>
</g>
<g id="Group">
<g id="Vector">
<use xlink:href="#path29_fill" transform="translate(98.1434 1464.61)" fill="#505050"/>
</g>
</g>
<g id="Group">
<g id="Vector">
<use xlink:href="#path30_fill" transform="translate(99.0889 1470.43)" fill="#78AA96"/>
</g>
</g>
<g id="Group">
<g id="Group">
<g id="Vector">
<use xlink:href="#path31_fill" transform="translate(99.0889 1475.19)" fill="#646464"/>
</g>
<g id="Vector">
<use xlink:href="#path32_fill" transform="translate(102.808 1475.19)" fill="#646464"/>
</g>
<g id="Vector">
<use xlink:href="#path31_fill" transform="translate(106.53 1475.19)" fill="#646464"/>
</g>
</g>
<g id="Group">
<g id="Vector">
<use xlink:href="#path33_fill" transform="translate(99.0889 1479.13)" fill="#646464"/>
</g>
<g id="Vector">
<use xlink:href="#path34_fill" transform="translate(102.808 1479.13)" fill="#646464"/>
</g>
<g id="Vector">
<use xlink:href="#path35_fill" transform="translate(106.53 1479.13)" fill="#646464"/>
</g>
</g>
<g id="Group">
<g id="Vector">
<use xlink:href="#path36_fill" transform="translate(99.0889 1483.07)" fill="#646464"/>
</g>
<g id="Vector">
<use xlink:href="#path37_fill" transform="translate(102.808 1483.07)" fill="#646464"/>
</g>
<g id="Vector">
<use xlink:href="#path38_fill" transform="translate(106.53 1483.07)" fill="#646464"/>
</g>
</g>
<g id="Group">
<g id="Vector">
<use xlink:href="#path39_fill" transform="translate(99.0889 1487)" fill="#646464"/>
</g>
<g id="Vector">
<use xlink:href="#path40_fill" transform="translate(102.808 1487)" fill="#646464"/>
</g>
<g id="Vector">
<use xlink:href="#path41_fill" transform="translate(106.53 1487)" fill="#646464"/>
</g>
</g>
</g>
<g id="Group">
<g id="Group">
<g id="Vector">
<use xlink:href="#path42_fill" transform="translate(87.2856 1465.98)" fill="#646464"/>
</g>
</g>
<g id="Group">
<g id="Vector">
<use xlink:href="#path43_fill" transform="translate(87.2856 1467.33)" fill="#646464"/>
</g>
</g>
<g id="Group">
<g id="Vector">
<use xlink:href="#path44_fill" transform="translate(87.2856 1468.69)" fill="#646464"/>
</g>
</g>
<g id="Group">
<g id="Vector">
<use xlink:href="#path45_fill" transform="translate(87.2856 1470.04)" fill="#646464"/>
</g>
</g>
<g id="Group">
<g id="Vector">
<use xlink:href="#path46_fill" transform="translate(87.2856 1471.4)" fill="#646464"/>
</g>
</g>
</g>
<g id="Group">
<g id="Vector">
<use xlink:href="#path47_fill" transform="translate(89.0968 1484.95)" fill="#B4B4B4"/>
</g>
</g>
<g id="Group">
<g id="Vector">
<use xlink:href="#path48_fill" transform="translate(89.8568 1485.71)" fill="#A0A0A0"/>
</g>
</g>
<g id="Group" opacity="0.2">
<g id="Vector" opacity="0.2">
<use xlink:href="#path49_fill" transform="translate(99.0889 1470.43)" fill="#FFFFFF"/>
</g>
</g>
<g id="Group">
<g id="Group">
<g id="Vector">
<use xlink:href="#path50_fill" transform="translate(101.942 1481.64)" fill="#FED9AE"/>
</g>
</g>
<g id="Group">
<g id="Vector">
<use xlink:href="#path51_fill" transform="translate(102.676 1476.42)" fill="#FED9AE"/>
</g>
</g>
<g id="Group">
<g id="Vector">
<use xlink:href="#path52_fill" transform="translate(101.513 1492.38)" fill="#145A6E"/>
</g>
</g>
<g id="Group">
<g id="Vector">
<use xlink:href="#path53_fill" transform="translate(106.307 1482.02)" fill="#FFE1B9"/>
</g>
</g>
<g id="Group">
<g id="Vector">
<use xlink:href="#path54_fill" transform="translate(106.307 1492.38)" fill="#1E6478"/>
</g>
</g>
</g>
</g>
<g id="Group">
<g id="Group">
<g id="Vector">
<use xlink:href="#path55_fill" transform="translate(143.268 1455.94)" fill="#145A6E"/>
</g>
</g>
<g id="Group">
<g id="Vector">
<use xlink:href="#path56_fill" transform="translate(131.775 1448.87)" fill="#C84600"/>
</g>
</g>
<g id="Group">
<g id="Vector">
<use xlink:href="#path57_fill" transform="translate(137.581 1453.41)" fill="#DCDCDC"/>
</g>
</g>
<g id="Group">
<g id="Vector">
<use xlink:href="#path58_fill" transform="translate(166.841 1453.41)" fill="#E6E6E6"/>
</g>
</g>
<g id="Group">
<g id="Vector">
<use xlink:href="#path59_fill" transform="translate(145.139 1487.78)" fill="#3296AA"/>
</g>
</g>
<g id="Group">
<g id="Vector">
<use xlink:href="#path60_fill" transform="translate(171.181 1481.98)" fill="#3296AA"/>
</g>
</g>
<g id="Group">
<g id="Vector">
<use xlink:href="#path61_fill" transform="translate(134.247 1519.33)" fill="#145A6E"/>
</g>
</g>
<g id="Group">
<g id="Group">
<g id="Vector">
<use xlink:href="#path62_fill" transform="translate(130.056 1525.75)" fill="#3296AA"/>
</g>
</g>
<g id="Group">
<g id="Vector">
<use xlink:href="#path63_fill" transform="translate(130.056 1517.8)" fill="#3296AA"/>
</g>
</g>
<g id="Group">
<g id="Vector">
<use xlink:href="#path64_fill" transform="translate(130.056 1515.16)" fill="#3296AA"/>
</g>
</g>
<g id="Group">
<g id="Vector">
<use xlink:href="#path65_fill" transform="translate(133.271 1515.04)" fill="#3296AA"/>
</g>
</g>
<g id="Group">
<g id="Vector">
<use xlink:href="#path66_fill" transform="translate(133.389 1481.99)" fill="#3296AA"/>
</g>
</g>
<g id="Group">
<g id="Vector">
<use xlink:href="#path67_fill" transform="translate(133.271 1479.3)" fill="#3296AA"/>
</g>
</g>
<g id="Group">
<g id="Vector">
<use xlink:href="#path68_fill" transform="translate(123.718 1479.3)" fill="#3296AA"/>
</g>
</g>
<g id="Group">
<g id="Vector">
<use xlink:href="#path69_fill" transform="translate(119.68 1478.99)" fill="#3296AA"/>
</g>
</g>
<g id="Group">
<g id="Vector">
<use xlink:href="#path70_fill" transform="translate(122.746 1466.46)" fill="#3296AA"/>
</g>
</g>
<g id="Group">
<g id="Vector">
<use xlink:href="#path71_fill" transform="translate(138.74 1464.88)" fill="#3296AA"/>
</g>
</g>
<g id="Group">
<g id="Vector">
<use xlink:href="#path72_fill" transform="translate(139.078 1454.4)" fill="#3296AA"/>
</g>
</g>
<g id="Group">
<g id="Vector">
<use xlink:href="#path73_fill" transform="translate(139.078 1451.78)" fill="#3296AA"/>
</g>
</g>
<g id="Group">
<g id="Vector">
<use xlink:href="#path74_fill" transform="translate(141.715 1451.78)" fill="#3296AA"/>
</g>
</g>
<g id="Group">
<g id="Vector">
<use xlink:href="#path75_fill" transform="translate(152.279 1451.78)" fill="#3296AA"/>
</g>
</g>
<g id="Group">
<g id="Vector">
<use xlink:href="#path76_fill" transform="translate(152.397 1454.25)" fill="#3296AA"/>
</g>
</g>
<g id="Group">
<g id="Vector">
<use xlink:href="#path77_fill" transform="translate(154.346 1445.2)" fill="#3296AA"/>
</g>
</g>
<g id="Group">
<g id="Vector">
<use xlink:href="#path78_fill" transform="translate(165.905 1443.56)" fill="#3296AA"/>
</g>
</g>
<g id="Group">
<g id="Vector">
<use xlink:href="#path79_fill" transform="translate(168.17 1445.18)" fill="#3296AA"/>
</g>
</g>
<g id="Group">
<g id="Vector">
<use xlink:href="#path80_fill" transform="translate(211.336 1478.99)" fill="#3296AA"/>
</g>
</g>
<g id="Group">
<g id="Vector">
<use xlink:href="#path81_fill" transform="translate(202.005 1479.3)" fill="#3296AA"/>
</g>
</g>
<g id="Group">
<g id="Vector">
<use xlink:href="#path82_fill" transform="translate(199.094 1479.3)" fill="#3296AA"/>
</g>
</g>
<g id="Group">
<g id="Vector">
<use xlink:href="#path83_fill" transform="translate(199.095 1481.99)" fill="#3296AA"/>
</g>
</g>
<g id="Group">
<g id="Vector">
<use xlink:href="#path84_fill" transform="translate(199.094 1515.04)" fill="#3296AA"/>
</g>
</g>
<g id="Group">
<g id="Vector">
<use xlink:href="#path85_fill" transform="translate(202.309 1515.16)" fill="#3296AA"/>
</g>
</g>
<g id="Group">
<g id="Vector">
<use xlink:href="#path86_fill" transform="translate(202.429 1517.8)" fill="#3296AA"/>
</g>
</g>
<g id="Group">
<g id="Vector">
<use xlink:href="#path87_fill" transform="translate(202.309 1525.75)" fill="#3296AA"/>
</g>
</g>
<g id="Group">
<g id="Vector">
<use xlink:href="#path88_fill" transform="translate(132.821 1525.87)" fill="#3296AA"/>
</g>
</g>
</g>
<g id="Group">
<g id="Group">
<g id="Vector">
<use xlink:href="#path89_fill" transform="translate(194.758 1523.69)" fill="#3296AA"/>
</g>
</g>
<g id="Group">
<g id="Vector">
<use xlink:href="#path90_fill" transform="translate(194.333 1527.32)" fill="#3296AA"/>
</g>
</g>
<g id="Group">
<g id="Vector">
<use xlink:href="#path91_fill" transform="translate(198.797 1530.59)" fill="#003C50"/>
</g>
</g>
</g>
</g>
<g id="Group">
<g id="Group">
<g id="Vector">
<use xlink:href="#path92_fill" transform="translate(117.202 1501.95)" fill="#DCDCDC"/>
</g>
</g>
<g id="Group">
<g id="Vector">
<use xlink:href="#path93_fill" transform="translate(135.842 1501.95)" fill="#E6E6E6"/>
</g>
</g>
<g id="Group">
<g id="Vector">
<use xlink:href="#path94_fill" transform="translate(122.172 1503.74)" fill="#78AA96"/>
</g>
</g>
<g id="Group">
<g id="Group">
<g id="Vector">
<use xlink:href="#path95_fill" transform="translate(119.623 1511.83)" fill="#969696"/>
</g>
</g>
<g id="Group">
<g id="Vector">
<use xlink:href="#path96_fill" transform="translate(119.623 1517.18)" fill="#969696"/>
</g>
</g>
<g id="Group">
<g id="Vector">
<use xlink:href="#path97_fill" transform="translate(119.623 1522.52)" fill="#969696"/>
</g>
</g>
<g id="Group">
<g id="Vector">
<use xlink:href="#path98_fill" transform="translate(119.623 1527.87)" fill="#969696"/>
</g>
</g>
</g>
<g id="Group">
<g id="Group">
<g id="Vector">
<use xlink:href="#path99_fill" transform="translate(146.918 1511.83)" fill="#969696"/>
</g>
</g>
<g id="Group">
<g id="Vector">
<use xlink:href="#path100_fill" transform="translate(146.918 1517.18)" fill="#969696"/>
</g>
</g>
<g id="Group">
<g id="Vector">
<use xlink:href="#path101_fill" transform="translate(146.918 1522.52)" fill="#969696"/>
</g>
</g>
<g id="Group">
<g id="Vector">
<use xlink:href="#path102_fill" transform="translate(146.918 1527.87)" fill="#969696"/>
</g>
</g>
</g>
<g id="Group">
<g id="Group">
<g id="Group">
<g id="Vector">
<use xlink:href="#path103_fill" transform="translate(126.648 1511.83)" fill="#B4B4B4"/>
</g>
</g>
<g id="Group">
<g id="Vector">
<use xlink:href="#path104_fill" transform="translate(133.29 1511.83)" fill="#B4B4B4"/>
</g>
</g>
<g id="Group">
<g id="Vector">
<use xlink:href="#path105_fill" transform="translate(139.931 1511.83)" fill="#B4B4B4"/>
</g>
</g>
</g>
<g id="Group">
<g id="Group">
<g id="Vector">
<use xlink:href="#path106_fill" transform="translate(126.647 1517.18)" fill="#B4B4B4"/>
</g>
</g>
<g id="Group">
<g id="Vector">
<use xlink:href="#path107_fill" transform="translate(133.289 1517.18)" fill="#B4B4B4"/>
</g>
</g>
<g id="Group">
<g id="Vector">
<use xlink:href="#path108_fill" transform="translate(139.931 1517.18)" fill="#B4B4B4"/>
</g>
</g>
</g>
<g id="Group">
<g id="Group">
<g id="Vector">
<use xlink:href="#path109_fill" transform="translate(126.647 1522.52)" fill="#B4B4B4"/>
</g>
</g>
<g id="Group">
<g id="Vector">
<use xlink:href="#path110_fill" transform="translate(133.289 1522.52)" fill="#B4B4B4"/>
</g>
</g>
<g id="Group">
<g id="Vector">
<use xlink:href="#path111_fill" transform="translate(139.931 1522.52)" fill="#B4B4B4"/>
</g>
</g>
</g>
<g id="Group">
<g id="Group">
<g id="Vector">
<use xlink:href="#path112_fill" transform="translate(133.288 1527.87)" fill="#B4B4B4"/>
</g>
</g>
</g>
</g>
<g id="Group" opacity="0.2">
<g id="Vector" opacity="0.2">
<use xlink:href="#path113_fill" transform="translate(122.404 1503.74)" fill="#FFFFFF"/>
</g>
</g>
</g>
<g id="Group">
<g id="Vector">
<use xlink:href="#path114_fill" transform="translate(150.958 1418.11)" fill="#3CDCF0"/>
</g>
</g>
</g>
</g>
<defs>
<path id="path0_fill" d="M 13.9795 27.7941C 21.7002 27.7941 27.959 21.5722 27.959 13.8971C 27.959 6.22192 21.7002 0 13.9795 0C 6.25883 0 0 6.22192 0 13.8971C 0 21.5722 6.25883 27.7941 13.9795 27.7941Z"/>
<path id="path1_fill" d="M 7.51572 14.9428C 11.6665 14.9428 15.0314 11.5977 15.0314 7.47139C 15.0314 3.34506 11.6665 0 7.51572 0C 3.3649 0 4.46643e-06 3.34506 4.46643e-06 7.47139C 4.46643e-06 11.5977 3.3649 14.9428 7.51572 14.9428Z"/>
<path id="path2_fill" d="M 9.0957 18.0841C 14.1191 18.0841 18.1914 14.0358 18.1914 9.04206C 18.1914 4.04827 14.1191 0 9.0957 0C 4.07228 0 0 4.04827 0 9.04206C 0 14.0358 4.07228 18.0841 9.0957 18.0841Z"/>
<path id="path3_fill" d="M 11.3767 7.29614L -1.19274e-06 7.29614L -1.19274e-06 5.2518L 9.31939 5.2518L 9.31939 1.38753e-07L 11.3767 1.38753e-07L 11.3767 7.29614Z"/>
<path id="path4_fill" d="M 2.65686 0L 0 0L 0 21.2205L 2.65686 21.2205L 2.65686 0Z"/>
<path id="path5_fill" d="M 0.984576 0L 0 0L 0 8.24019L 0.984576 8.24019L 0.984576 0Z"/>
<path id="path6_fill" d="M 2.04483 4.06554C 3.17415 4.06554 4.08965 3.15544 4.08965 2.03277C 4.08965 0.910102 3.17415 0 2.04483 0C 0.915499 0 0 0.910102 0 2.03277C 0 3.15544 0.915499 4.06554 2.04483 4.06554Z"/>
<path id="path7_fill" d="M 4.08965 0L 0 0L 0 5.81476L 4.08965 5.81476L 4.08965 0Z"/>
<path id="path8_fill" d="M 2.65686 0L 0 0L 0 10.6102L 2.65686 10.6102L 2.65686 0Z"/>
<path id="path9_fill" d="M 24.0585 13.1936L 19.2071 20.0813C 18.7672 20.7055 17.9016 20.8576 17.2737 20.4203L 0.592474 8.80976C 0.290615 8.59979 0.085217 8.27905 0.0211863 7.91862C -0.0428445 7.55819 0.0394811 7.18702 0.251531 6.88777L 5.10374 6.6223e-08L 24.0585 13.1936Z"/>
<path id="path10_fill" d="M 1.88234 0L 0 0L 0 5.61989L 1.88234 5.61989L 1.88234 0Z"/>
<path id="path11_fill" d="M 28.0372 17.064L 17.7956 18.905L -1.52265e-07 6.51746L 4.17614 0.588624C 4.61604 -0.0355082 5.4817 -0.187614 6.10953 0.249691L 28.7689 16.0233L 28.0372 17.064Z"/>
<path id="path12_fill" d="M 21.1784 11.0294L 18.3028 15.1114C 17.8629 15.7356 16.9973 15.8877 16.3694 15.4504L 0.615361 4.48548L -1.0151e-06 0.992824L 0.698517 -1.38753e-07L 17.4929 11.689L 21.1784 11.0294Z"/>
<path id="path13_fill" d="M -1.42114e-06 7.06054L 7.31863 12.1544L 17.5594 10.3135L 18.2937 9.27269L 4.97278 3.02734e-07L -1.42114e-06 7.06054Z"/>
<path id="path14_fill" d="M 16.2272 32.2631C 25.1893 32.2631 32.4545 25.0407 32.4545 16.1315C 32.4545 7.22233 25.1893 0 16.2272 0C 7.26518 0 0 7.22233 0 16.1315C 0 25.0407 7.26518 32.2631 16.2272 32.2631Z"/>
<path id="path15_fill" d="M 5.07506 10.0903C 7.87794 10.0903 10.1501 7.83148 10.1501 5.04513C 10.1501 2.25878 7.87794 2.42187e-06 5.07506 2.42187e-06C 2.27218 2.42187e-06 0 2.25878 0 5.04513C 0 7.83148 2.27218 10.0903 5.07506 10.0903Z"/>
<path id="path16_fill" d="M 25.8552 29.3528C 26.0356 30.0224 25.6357 30.7102 24.9629 30.8887L 9.2496 35.0741C 8.57603 35.2535 7.88417 34.8559 7.70455 34.1871L 0.043308 5.76473C -0.137142 5.09513 0.26284 4.40735 0.935579 4.22879L 16.6489 0.0425591C 16.9724 -0.043414 17.3166 0.00205262 17.606 0.168212C 17.8962 0.334372 18.1075 0.608824 18.1939 0.92957L 25.8552 29.3528Z"/>
<path id="path17_fill" d="M 16.1715 30.8904C 16.8451 30.711 17.2434 30.0232 17.0629 29.3536L 9.40171 0.930402C 9.22126 0.260804 8.53022 -0.136822 7.85665 0.0433909L 2.5885e-06 2.13568L 8.31402 32.9835L 16.1715 30.8904Z"/>
<path id="path18_fill" d="M 16.6813 0L 0 0L 0 26.4456L 16.6813 26.4456L 16.6813 0Z"/>
<path id="path19_fill" d="M 9.72079 7.95976L 1.49159 10.1513L 0.136128 5.12183C -0.431833 3.01714 0.82966 0.84549 2.94766 0.280878L 3.4965 0.135385C 5.6145 -0.429227 7.7982 0.823997 8.36616 2.92951L 9.72079 7.95976ZM 2.29488 8.76907L 8.32874 7.16203L 7.26766 3.22298C 6.86269 1.7201 5.30267 0.823997 3.79004 1.22576L 3.24121 1.37208C 1.72858 1.77466 0.827993 3.32631 1.23297 4.83001L 2.29488 8.76907Z"/>
<path id="path20_fill" d="M 12.2781 3.17274L 4.84388 -1.89208e-08L 5.07549e-08 6.44302L 12.2781 3.17274Z"/>
<path id="path21_fill" d="M 4.04142 6.81151e-07L 1.52265e-07 5.37745L 2.02986 12.9051L 12.2748 10.1754L 10.2449 2.64781L 4.04142 6.81151e-07Z"/>
<path id="path22_fill" d="M 8.23335 10.1754L 6.2035 2.64781L 6.59814e-07 6.81151e-07L 3.1109 11.5402L 8.23335 10.1754Z"/>
<path id="path23_fill" d="M 11.8103 0L 0 0L 0 0.647537L 11.8103 0.647537L 11.8103 0Z"/>
<path id="path24_fill" d="M 1.37209 2.72799C 2.12987 2.72799 2.74418 2.11731 2.74418 1.364C 2.74418 0.610682 2.12987 0 1.37209 0C 0.614303 0 -2.69001e-06 0.610682 -2.69001e-06 1.364C -2.69001e-06 2.11731 0.614303 2.72799 1.37209 2.72799Z"/>
<path id="path25_fill" d="M 2.33338 3.34138C 1.6041 3.53564 1.23987 3.63319 0.510585 3.82663C 0.306019 2.40063 0.204569 1.68722 3.09605e-06 0.261226C 0.392503 0.157066 0.590416 0.10416 0.982085 -2.14436e-07C 1.5226 1.33589 1.7912 2.00549 2.33338 3.34138Z"/>
<path id="path26_fill" d="M 4.42054 0L 0 0L 0 1.94095L 4.42054 1.94095L 4.42054 0Z"/>
<path id="path27_fill" d="M 1.54007 11.5617L 8.25415 1.63981e-07L 2.50718 1.53098L -1.62416e-06 5.84865L 1.54007 11.5617Z"/>
<path id="path28_fill" d="M 24.2885 26.3532C 24.2885 27.1237 23.6606 27.7478 22.8856 27.7478L 1.40202 27.7478C 0.627834 27.7478 0 27.1237 0 26.3532L 0 1.39458C 0 0.624133 0.627834 9.83884e-07 1.40202 9.83884e-07L 22.8848 9.83884e-07C 23.6598 9.83884e-07 24.2876 0.624133 24.2876 1.39458L 24.2876 26.3532L 24.2885 26.3532Z"/>
<path id="path29_fill" d="M 12.1451 26.3524C 12.1451 27.1229 11.5172 27.747 10.7422 27.747L -2.60119e-07 27.747L -2.60119e-07 5.29784e-07L 10.7422 5.29784e-07C 11.5172 5.29784e-07 12.1451 0.624132 12.1451 1.39458L 12.1451 26.3524Z"/>
<path id="path30_fill" d="M 10.0894 0L 0 0L 0 3.48521L 10.0894 3.48521L 10.0894 0Z"/>
<path id="path31_fill" d="M 2.80488 0L 0 0L 0 2.78834L 2.80488 2.78834L 2.80488 0Z"/>
<path id="path32_fill" d="M 2.80488 0L 0 0L 0 2.78834L 2.80488 2.78834L 2.80488 0Z"/>
<path id="path33_fill" d="M 2.80405 3.02734e-06L 0 3.02734e-06L 0 2.78834L 2.80405 2.78834L 2.80405 3.02734e-06Z"/>
<path id="path34_fill" d="M 2.80488 3.02734e-06L 0 3.02734e-06L 0 2.78834L 2.80488 2.78834L 2.80488 3.02734e-06Z"/>
<path id="path35_fill" d="M 2.80571 3.02734e-06L 0 3.02734e-06L 0 2.78834L 2.80571 2.78834L 2.80571 3.02734e-06Z"/>
<path id="path36_fill" d="M 2.80405 -2.87597e-06L 0 -2.87597e-06L 0 2.78834L 2.80405 2.78834L 2.80405 -2.87597e-06Z"/>
<path id="path37_fill" d="M 2.80488 -2.87597e-06L 0 -2.87597e-06L 0 2.78834L 2.80488 2.78834L 2.80488 -2.87597e-06Z"/>
<path id="path38_fill" d="M 2.80488 -2.87597e-06L 0 -2.87597e-06L 0 2.78834L 2.80488 2.78834L 2.80488 -2.87597e-06Z"/>
<path id="path39_fill" d="M 2.80405 -2.01822e-06L 0 -2.01822e-06L 0 2.78751L 2.80405 2.78751L 2.80405 -2.01822e-06Z"/>
<path id="path40_fill" d="M 2.80488 -2.01822e-06L 0 -2.01822e-06L 0 2.78751L 2.80488 2.78751L 2.80488 -2.01822e-06Z"/>
<path id="path41_fill" d="M 2.80488 -2.01822e-06L 0 -2.01822e-06L 0 2.78751L 2.80488 2.78751L 2.80488 -2.01822e-06Z"/>
<path id="path42_fill" d="M 9.07657 0.233118C 9.07657 0.360424 8.97179 0.464586 8.8429 0.464586L 0.233671 0.464586C 0.104778 0.464586 3.17218e-09 0.360424 3.17218e-09 0.233118C 3.17218e-09 0.104158 0.104778 4.541e-07 0.233671 4.541e-07L 8.8429 4.541e-07C 8.97179 4.541e-07 9.07657 0.103332 9.07657 0.233118Z"/>
<path id="path43_fill" d="M 9.07657 0.233118C 9.07657 0.361251 8.97179 0.465409 8.8429 0.465409L 0.233671 0.465409C 0.104778 0.465409 3.17218e-09 0.361251 3.17218e-09 0.233118C 3.17218e-09 0.104158 0.104778 4.03645e-07 0.233671 4.03645e-07L 8.8429 4.03645e-07C 8.97179 4.03645e-07 9.07657 0.104158 9.07657 0.233118Z"/>
<path id="path44_fill" d="M 9.07657 0.232292C 9.07657 0.361251 8.97179 0.465409 8.8429 0.465409L 0.233671 0.465409C 0.104778 0.465409 3.17218e-09 0.361251 3.17218e-09 0.232292C 3.17218e-09 0.104159 0.104778 3.53189e-07 0.233671 3.53189e-07L 8.8429 3.53189e-07C 8.97179 0.000827018 9.07657 0.104159 9.07657 0.232292Z"/>
<path id="path45_fill" d="M 8.8429 0.464588L 0.233671 0.464588C 0.104778 0.464588 3.17218e-09 0.360424 3.17218e-09 0.232291C 3.17218e-09 0.104158 0.104778 -6.05467e-07 0.233671 -6.05467e-07L 8.8429 -6.05467e-07C 8.97179 -6.05467e-07 9.07657 0.104158 9.07657 0.232291C 9.07657 0.360424 8.97179 0.464588 8.8429 0.464588Z"/>
<path id="path46_fill" d="M 8.8429 0.464588L 0.233671 0.464588C 0.104778 0.464588 3.17218e-09 0.36125 3.17218e-09 0.233117C 3.17218e-09 0.104157 0.104778 -6.55923e-07 0.233671 -6.55923e-07L 8.8429 -6.55923e-07C 8.97179 -6.55923e-07 9.07657 0.104157 9.07657 0.233117C 9.07657 0.360423 8.97179 0.464588 8.8429 0.464588Z"/>
<path id="path47_fill" d="M 2.72671 5.42127C 4.23263 5.42127 5.45343 4.20768 5.45343 2.71064C 5.45343 1.21359 4.23263 2.87597e-06 2.72671 2.87597e-06C 1.22079 2.87597e-06 0 1.21359 0 2.71064C 0 4.20768 1.22079 5.42127 2.72671 5.42127Z"/>
<path id="path48_fill" d="M 1.96666 3.91012C 3.05282 3.91012 3.93332 3.03481 3.93332 1.95506C 3.93332 0.875313 3.05282 -2.22005e-06 1.96666 -2.22005e-06C 0.880503 -2.22005e-06 0 0.875313 0 1.95506C 0 3.03481 0.880503 3.91012 1.96666 3.91012Z"/>
<path id="path49_fill" d="M 1.78288 8.57745e-07L -1.90331e-07 1.77237L -1.90331e-07 3.48521L 1.94753 3.48521L 5.45343 8.57745e-07L 1.78288 8.57745e-07Z"/>
<path id="path50_fill" d="M 9.53036 3.37488L 9.48463 4.07754L 9.48463 4.08911L 9.47798 4.15029L 9.47798 4.15359L 9.29004 7.03948L 9.26592 7.03948L 9.17279 8.3051C 9.14535 8.66139 9.03558 9.00859 8.85347 9.31611L 8.48924 9.93776C 8.34288 10.1841 8.24642 10.4561 8.19736 10.7363C 8.1799 10.8446 8.17075 10.9562 8.16742 11.0678L 8.06098 15.7104L 1.24877 15.7104L 1.35521 11.0314C 1.35854 10.9322 1.35521 10.8363 1.34274 10.7363C 1.30199 10.3726 1.17892 10.0188 0.976018 9.70465L 0.381447 8.79366C 0.0779242 8.33238 -0.0493055 7.78099 0.01722 7.23126L 0.532793 3.0409C 0.544435 2.93591 0.575202 2.83837 0.615118 2.74165L 0.617612 2.72346L 0.878726 0.809734L 0.881221 0.788239C 0.961051 0.288934 1.42756 -0.0632261 1.93731 0.0095204L 2.32482 0.0624294C 2.57429 0.0946693 2.79798 0.223628 2.95099 0.420374C 3.02667 0.519574 3.07739 0.631172 3.11149 0.745251L 3.11149 0.749389C 3.12895 0.816348 3.1381 0.880825 3.14142 0.951091C 3.14392 0.981678 3.14392 1.01557 3.14142 1.04781C 3.14142 1.07096 3.1381 1.09328 3.13477 1.11725C 3.15223 1.02384 3.18383 0.936214 3.22541 0.854374C 3.24371 0.818828 3.26449 0.784934 3.28612 0.751867C 3.34017 0.670027 3.41085 0.598107 3.49235 0.534454C 3.68943 0.387308 3.94139 0.317041 4.19003 0.350935L 4.363 0.374907L 4.57837 0.406322C 4.97337 0.460055 5.28022 0.744427 5.3667 1.10816C 5.39414 1.21976 5.40079 1.33963 5.38499 1.46032L 5.35256 1.70832L 5.35256 1.71741L 5.33261 1.84637C 5.36337 1.79842 5.39664 1.75048 5.43655 1.70501C 5.44819 1.68765 5.46399 1.66864 5.48229 1.65128C 5.67272 1.46114 5.9463 1.35533 6.23735 1.38261L 6.62653 1.41898C 6.68557 1.42477 6.74627 1.43717 6.80199 1.45123C 6.85853 1.46941 6.91342 1.49091 6.96414 1.51488C 6.98909 1.53059 7.0157 1.54216 7.04148 1.55704C 7.08971 1.5901 7.13461 1.624 7.17786 1.66202C 7.37078 1.84058 7.48637 2.09107 7.48055 2.36552L 7.48055 2.39362C 7.47805 2.44157 7.47473 2.48621 7.4714 2.5292L 7.45227 2.71602C 7.4556 2.71023 7.45893 2.70693 7.46475 2.70197C 7.48055 2.68048 7.49884 2.66146 7.5163 2.64328C 7.5346 2.62592 7.55206 2.60855 7.57036 2.59037L 7.57368 2.58706C 7.60944 2.554 7.64603 2.52672 7.6926 2.50275C 7.85808 2.39445 8.05849 2.34154 8.25723 2.35725L 8.64724 2.38122C 9.17362 2.41264 9.56363 2.85821 9.53036 3.37488Z"/>
<path id="path51_fill" d="M 3.07348 1.19287L 2.44481 5.99579C 2.44481 5.99744 2.44232 6.00488 2.44232 6.00819L 2.40822 6.27355L 2.25272 7.44906L 2.18037 7.43997L 7.10569e-07 7.15643L 0.145525 6.03547L 0.148019 6.01397L 0.796642 1.05068C 0.881462 0.390177 1.49183 -0.0777178 2.15626 0.0107353C 2.74002 0.0859617 3.14832 0.613374 3.07348 1.19287Z"/>
<path id="path52_fill" d="M 9.58965 2.47232e-06L 0 2.47232e-06L 0 4.97404L 9.58965 4.97404L 9.58965 2.47232e-06Z"/>
<path id="path53_fill" d="M 5.1657 2.99997L 5.11997 3.70263L 5.11997 3.71421L 5.11331 3.77538L 5.11331 3.77868L 4.92538 6.66457L 4.90126 6.66457L 4.80813 7.93019C 4.78069 8.28648 4.67092 8.63368 4.48881 8.9412L 4.12458 9.56285C 3.97822 9.8092 3.88176 10.0812 3.8327 10.3614C 3.81524 10.4697 3.80609 10.5813 3.80276 10.6929L 3.69632 15.3355L 6.34436e-08 15.3355L 6.34436e-08 -1.46321e-06L 0.215377 0.0314135C 0.610372 0.0851466 0.917221 0.369518 1.0037 0.733251C 1.03115 0.84485 1.0378 0.964719 1.022 1.08541L 0.989567 1.33341L 0.989567 1.3425L 0.969609 1.47146C 1.00038 1.42351 1.03364 1.37557 1.07356 1.3301C 1.0852 1.31274 1.101 1.29373 1.11929 1.27637C 1.30972 1.08623 1.58331 0.980424 1.87435 1.0077L 2.26353 1.04408C 2.32257 1.04986 2.38328 1.06226 2.43899 1.07632C 2.49554 1.0945 2.55042 1.116 2.60115 1.13997C 2.62609 1.15568 2.6527 1.16725 2.67848 1.18213C 2.72671 1.2152 2.77162 1.24909 2.81486 1.28711C 3.00778 1.46567 3.12337 1.71616 3.11755 1.99061L 3.11755 2.01871C 3.11506 2.06666 3.11173 2.1113 3.1084 2.15429L 3.08928 2.34111C 3.0926 2.33533 3.09593 2.33202 3.10175 2.32706C 3.11755 2.30557 3.13584 2.28656 3.15331 2.26837C 3.1716 2.25101 3.18907 2.23365 3.20736 2.21546L 3.21069 2.21215C 3.24644 2.17909 3.28303 2.15181 3.3296 2.12784C 3.49508 2.01954 3.69549 1.96664 3.89424 1.98234L 4.28424 2.00631C 4.80896 2.03773 5.19897 2.4833 5.1657 2.99997Z"/>
<path id="path54_fill" d="M 4.79566 2.47232e-06L 0 2.47232e-06L 0 4.97404L 4.79566 4.97404L 4.79566 2.47232e-06Z"/>
<path id="path55_fill" d="M 6.13614 0L -3.1468e-06 0L -3.1468e-06 12.4909L 6.13614 12.4909L 6.13614 0Z"/>
<path id="path56_fill" d="M 70.1312 27.4585L 35.0664 7.06378e-07L 1.19274e-06 27.4585L 70.1312 27.4585Z"/>
<path id="path57_fill" d="M 29.2596 -1.5389e-06L -5.58304e-07 22.9135L -5.58304e-07 65.9133L 58.5191 65.9133L 58.5191 22.9135L 29.2596 -1.5389e-06Z"/>
<path id="path58_fill" d="M 29.2596 65.9133L 29.2596 22.9135L -3.04529e-06 -1.5389e-06L -3.04529e-06 65.9133L 29.2596 65.9133Z"/>
<path id="path59_fill" d="M 17.2126 0L -3.1468e-06 0L -3.1468e-06 31.5439L 17.2126 31.5439L 17.2126 0Z"/>
<path id="path60_fill" d="M 17.3632 0L 0 0L 0 26.1871L 17.3632 26.1871L 17.3632 0Z"/>
<path id="path61_fill" d="M 65.1883 2.57324e-06L 0 2.57324e-06L 0 3.57036L 65.1883 3.57036L 65.1883 2.57324e-06Z"/>
<path id="path62_fill" d="M 1.31637 1.31026L -3.80662e-07 1.31026L -3.80662e-07 3.83463e-06L 1.19746 3.83463e-06L 1.19746 0.119041L 1.31637 0.119041L 1.31637 1.31026Z"/>
<path id="path63_fill" d="M 1.19746 6.6315L -3.80662e-07 6.6315L -3.80662e-07 5.30554L 1.19746 5.30554L 1.19746 6.6315ZM 1.19746 3.98038L -3.80662e-07 3.98038L -3.80662e-07 2.65359L 1.19746 2.65359L 1.19746 3.98038ZM 1.19746 1.32597L -3.80662e-07 1.32597L -3.80662e-07 -1.56412e-06L 1.19746 -1.56412e-06L 1.19746 1.32597Z"/>
<path id="path64_fill" d="M 1.19746 1.30944L -3.80662e-07 1.30944L -3.80662e-07 1.8164e-06L 1.31637 1.8164e-06L 1.31637 1.19122L 1.19746 1.19122L 1.19746 1.30944Z"/>
<path id="path65_fill" d="M 1.31804 1.31109L 1.0151e-06 1.31109L 1.0151e-06 0.119868L 0.118913 0.119868L 0.118913 -1.71549e-06L 1.31804 -1.71549e-06L 1.31804 1.31109Z"/>
<path id="path66_fill" d="M 1.19912 31.6753L -8.62834e-07 31.6753L -8.62834e-07 30.2973L 1.19912 30.2973L 1.19912 31.6753ZM 1.19912 28.9209L -8.62834e-07 28.9209L -8.62834e-07 27.5436L 1.19912 27.5436L 1.19912 28.9209ZM 1.19912 26.1664L -8.62834e-07 26.1664L -8.62834e-07 24.7892L 1.19912 24.7892L 1.19912 26.1664ZM 1.19912 23.4111L -8.62834e-07 23.4111L -8.62834e-07 22.0339L 1.19912 22.0339L 1.19912 23.4111ZM 1.19912 20.6583L -8.62834e-07 20.6583L -8.62834e-07 19.2803L 1.19912 19.2803L 1.19912 20.6583ZM 1.19912 17.9039L -8.62834e-07 17.9039L -8.62834e-07 16.5267L 1.19912 16.5267L 1.19912 17.9039ZM 1.19912 15.1495L -8.62834e-07 15.1495L -8.62834e-07 13.7722L 1.19912 13.7722L 1.19912 15.1495ZM 1.19912 12.3942L -8.62834e-07 12.3942L -8.62834e-07 11.017L 1.19912 11.017L 1.19912 12.3942ZM 1.19912 9.63891L -8.62834e-07 9.63891L -8.62834e-07 8.26251L 1.19912 8.26251L 1.19912 9.63891ZM 1.19912 6.88529L -8.62834e-07 6.88529L -8.62834e-07 5.50806L 1.19912 5.50806L 1.19912 6.88529ZM 1.19912 4.13084L -8.62834e-07 4.13084L -8.62834e-07 2.75362L 1.19912 2.75362L 1.19912 4.13084ZM 1.19912 1.3764L -8.62834e-07 1.3764L -8.62834e-07 2.2705e-06L 1.19912 2.2705e-06L 1.19912 1.3764Z"/>
<path id="path67_fill" d="M 1.31804 1.30944L 0.118913 1.30944L 0.118913 1.1904L 1.0151e-06 1.1904L 1.0151e-06 2.7246e-06L 1.31804 2.7246e-06L 1.31804 1.30944Z"/>
<path id="path68_fill" d="M 7.95977 1.1904L 6.36732 1.1904L 6.36732 2.7246e-06L 7.95977 2.7246e-06L 7.95977 1.1904ZM 4.77653 1.1904L 3.18324 1.1904L 3.18324 2.7246e-06L 4.77653 2.7246e-06L 4.77653 1.1904ZM 1.59328 1.1904L 1.42114e-06 1.1904L 1.42114e-06 2.7246e-06L 1.59328 2.7246e-06L 1.59328 1.1904Z"/>
<path id="path69_fill" d="M 2.44897 1.50453L -9.13588e-07 1.50453L 1.92259 -1.31185e-06L 2.17206 0.314135L 2.44897 0.314135L 2.44897 0.661333L 2.66435 0.93496L 2.44897 1.10525L 2.44897 1.50453Z"/>
<path id="path70_fill" d="M 0.740929 12.5653L -6.85191e-07 11.6295L 1.14174 10.7359L 1.88434 11.6708L 0.740929 12.5653ZM 3.02608 10.7747L 2.28432 9.84061L 3.42773 8.94699L 4.16865 9.88112L 3.02608 10.7747ZM 5.31206 8.98667L 4.5703 8.05254L 5.71204 7.15809L 6.4538 8.09139L 5.31206 8.98667ZM 7.59638 7.19694L 6.85545 6.26199L 7.99802 5.36753L 8.73979 6.30166L 7.59638 7.19694ZM 9.88236 5.40804L 9.13977 4.47391L 10.2832 3.57863L 11.0241 4.51359L 9.88236 5.40804ZM 12.1675 3.61997L 11.4249 2.68418L 12.5683 1.78807L 13.3109 2.72386L 12.1675 3.61997ZM 14.4527 1.82858L 13.7092 0.894449L 14.8526 1.03434e-06L 15.5936 0.934133L 14.4527 1.82858Z"/>
<path id="path71_fill" d="M 0.74093 1.62522L 7.35946e-07 0.688612L 0.338447 0.425732L 0.338447 7.31606e-07L 1.53424 7.31606e-07L 1.53424 1.00357L 0.74093 1.62522Z"/>
<path id="path72_fill" d="M 1.19579 9.17184L -1.19274e-06 9.17184L -1.19274e-06 7.86158L 1.19579 7.86158L 1.19579 9.17184ZM 1.19579 6.55214L -1.19274e-06 6.55214L -1.19274e-06 5.24188L 1.19579 5.24188L 1.19579 6.55214ZM 1.19579 3.93079L -1.19274e-06 3.93079L -1.19274e-06 2.62053L 1.19579 2.62053L 1.19579 3.93079ZM 1.19579 1.30944L -1.19274e-06 1.30944L -1.19274e-06 4.79328e-07L 1.19579 4.79328e-07L 1.19579 1.30944Z"/>
<path id="path73_fill" d="M 1.19579 1.30944L -1.19274e-06 1.30944L -1.19274e-06 -1.16048e-06L 1.31388 -1.16048e-06L 1.31388 1.1904L 1.19579 1.1904L 1.19579 1.30944Z"/>
<path id="path74_fill" d="M 9.24371 1.1904L 7.92235 1.1904L 7.92235 -1.16048e-06L 9.24371 -1.16048e-06L 9.24371 1.1904ZM 6.60182 1.1904L 5.28212 1.1904L 5.28212 -1.16048e-06L 6.60182 -1.16048e-06L 6.60182 1.1904ZM 3.96159 1.1904L 2.6394 1.1904L 2.6394 -1.16048e-06L 3.96159 -1.16048e-06L 3.96159 1.1904ZM 1.32053 1.1904L 0 1.1904L 0 -1.16048e-06L 1.32053 -1.16048e-06L 1.32053 1.1904Z"/>
<path id="path75_fill" d="M 1.31804 1.30944L 0.118084 1.30944L 0.118084 1.1904L 2.43624e-06 1.1904L 2.43624e-06 -1.16048e-06L 1.31804 -1.16048e-06L 1.31804 1.30944Z"/>
<path id="path76_fill" d="M 1.0151e-06 2.1361L 1.0151e-06 0.195093L 0.543846 0.195093L 0.792482 2.01822e-07L 0.94882 0.195093L 1.19995 0.195093L 1.19995 0.510879L 1.53591 0.935784L 1.0151e-06 2.1361Z"/>
<path id="path77_fill" d="M 0.740929 9.08339L 2.48699e-06 8.1476L 1.15671 7.24241L 1.89764 8.17819L 0.740929 9.08339ZM 3.05352 7.27134L 2.31176 6.33556L 3.46847 5.43119L 4.21023 6.36697L 3.05352 7.27134ZM 5.36362 5.46177L 4.62269 4.52599L 5.7794 3.62079L 6.52116 4.55658L 5.36362 5.46177ZM 7.67704 3.65055L 6.93445 2.71642L 8.09199 1.81205L 8.83292 2.74535L 7.67704 3.65055ZM 9.98963 1.84098L 9.2487 0.905199L 10.4054 2.52278e-08L 11.1455 0.935784L 9.98963 1.84098Z"/>
<path id="path78_fill" d="M 1.12927 1.66738L 0.935511 1.51528L 0.741761 1.66738L -3.04529e-06 0.731597L 0.935511 4.03645e-07L 1.87103 0.731597L 1.12927 1.66738Z"/>
<path id="path79_fill" d="M 42.03 33.8478L 40.8949 32.9575L 41.6358 32.0242L 42.7709 32.9128L 42.03 33.8478ZM 39.7581 32.0688L 38.6222 31.1785L 39.3639 30.2443L 40.4999 31.1347L 39.7581 32.0688ZM 37.4863 30.2906L 36.3495 29.4003L 37.0921 28.4654L 38.2289 29.3549L 37.4863 30.2906ZM 35.2153 28.5108L 34.0785 27.6205L 34.8194 26.6864L 35.9562 27.5767L 35.2153 28.5108ZM 32.9426 26.731L 31.8067 25.8415L 32.5493 24.9082L 33.6843 25.7969L 32.9426 26.731ZM 30.6699 24.9529L 29.5356 24.0625L 30.2774 23.1276L 31.4125 24.0179L 30.6699 24.9529ZM 28.3981 23.1739L 27.2638 22.2836L 28.0047 21.3494L 29.1407 22.2398L 28.3981 23.1739ZM 26.127 21.3941L 24.9911 20.5046L 25.7337 19.5696L 26.868 20.4599L 26.127 21.3941ZM 23.8552 19.6151L 22.7185 18.7264L 23.4602 17.7923L 24.5978 18.681L 23.8552 19.6151ZM 21.5842 17.8369L 20.4474 16.9466L 21.1884 16.0108L 22.326 16.9012L 21.5842 17.8369ZM 19.3132 16.058L 18.1748 15.1685L 18.9173 14.2327L 20.0541 15.1213L 19.3132 16.058ZM 17.0397 14.279L 15.9029 13.3887L 16.6455 12.4529L 17.7823 13.3432L 17.0397 14.279ZM 14.7678 12.4992L 13.6336 11.6088L 14.3745 10.6755L 15.5096 11.5642L 14.7678 12.4992ZM 12.496 10.7202L 11.3617 9.8307L 12.1018 8.89574L 13.2369 9.78523L 12.496 10.7202ZM 10.2233 8.94038L 9.08904 8.05171L 9.83164 7.11758L 10.9659 8.00625L 10.2233 8.94038ZM 7.95146 7.1614L 6.81637 6.27273L 7.55813 5.3386L 8.69405 6.22726L 7.95146 7.1614ZM 5.68127 5.38324L 4.54535 4.49292L 5.28545 3.55962L 6.42221 4.44828L 5.68127 5.38324ZM 3.40943 3.60426L 2.27267 2.71394L 3.01527 1.77981L 4.15119 2.67013L 3.40943 3.60426ZM 1.13592 1.82362L 2.94378e-06 0.934957L 0.743423 -8.0729e-07L 1.87685 0.888664L 1.13592 1.82362Z"/>
<path id="path80_fill" d="M 2.66434 1.50453L 0.217866 1.50453L 0.217866 1.10525L 1.0151e-07 0.93496L 0.217866 0.661333L 0.217866 0.314135L 0.49146 0.314135L 0.740933 -1.31185e-06L 2.66434 1.50453Z"/>
<path id="path81_fill" d="M 7.95562 1.1904L 6.36649 1.1904L 6.36649 2.7246e-06L 7.95562 2.7246e-06L 7.95562 1.1904ZM 4.77321 1.1904L 3.18325 1.1904L 3.18325 2.7246e-06L 4.77321 2.7246e-06L 4.77321 1.1904ZM 1.58996 1.1904L -9.13588e-07 1.1904L -9.13588e-07 2.7246e-06L 1.58996 2.7246e-06L 1.58996 1.1904Z"/>
<path id="path82_fill" d="M 1.19829 1.30944L 5.88757e-06 1.30944L 5.88757e-06 2.7246e-06L 1.31721 2.7246e-06L 1.31721 1.1904L 1.19829 1.1904L 1.19829 1.30944Z"/>
<path id="path83_fill" d="M 1.19746 31.6753L -9.13588e-07 31.6753L -9.13588e-07 30.2981L 1.19746 30.2981L 1.19746 31.6753ZM 1.19746 28.92L -9.13588e-07 28.92L -9.13588e-07 27.5445L 1.19746 27.5445L 1.19746 28.92ZM 1.19746 26.1672L -9.13588e-07 26.1672L -9.13588e-07 24.79L 1.19746 24.79L 1.19746 26.1672ZM 1.19746 23.412L -9.13588e-07 23.412L -9.13588e-07 22.0347L 1.19746 22.0347L 1.19746 23.412ZM 1.19746 20.6583L -9.13588e-07 20.6583L -9.13588e-07 19.2811L 1.19746 19.2811L 1.19746 20.6583ZM 1.19746 17.9031L -9.13588e-07 17.9031L -9.13588e-07 16.5259L 1.19746 16.5259L 1.19746 17.9031ZM 1.19746 15.1503L -9.13588e-07 15.1503L -9.13588e-07 13.7714L 1.19746 13.7714L 1.19746 15.1503ZM 1.19746 12.395L -9.13588e-07 12.395L -9.13588e-07 11.0178L 1.19746 11.0178L 1.19746 12.395ZM 1.19746 9.63973L -9.13588e-07 9.63973L -9.13588e-07 8.26251L 1.19746 8.26251L 1.19746 9.63973ZM 1.19746 6.88611L -9.13588e-07 6.88611L -9.13588e-07 5.50889L 1.19746 5.50889L 1.19746 6.88611ZM 1.19746 4.13167L -9.13588e-07 4.13167L -9.13588e-07 2.75444L 1.19746 2.75444L 1.19746 4.13167ZM 1.19746 1.37723L -9.13588e-07 1.37723L -9.13588e-07 2.7246e-06L 1.19746 2.7246e-06L 1.19746 1.37723Z"/>
<path id="path84_fill" d="M 1.31721 1.31109L 5.88757e-06 1.31109L 5.88757e-06 -1.71549e-06L 1.19829 -1.71549e-06L 1.19829 0.119868L 1.31721 0.119868L 1.31721 1.31109Z"/>
<path id="path85_fill" d="M 1.31721 1.30944L 0.11891 1.30944L 0.11891 1.19122L 3.65435e-06 1.19122L 3.65435e-06 1.8164e-06L 1.31721 1.8164e-06L 1.31721 1.30944Z"/>
<path id="path86_fill" d="M 1.19746 6.6315L 1.31963e-06 6.6315L 1.31963e-06 5.30554L 1.19746 5.30554L 1.19746 6.6315ZM 1.19746 3.98038L 1.31963e-06 3.98038L 1.31963e-06 2.65359L 1.19746 2.65359L 1.19746 3.98038ZM 1.19746 1.32597L 1.31963e-06 1.32597L 1.31963e-06 -1.56412e-06L 1.19746 -1.56412e-06L 1.19746 1.32597Z"/>
<path id="path87_fill" d="M 1.31721 1.31026L 3.65435e-06 1.31026L 3.65435e-06 0.119041L 0.11891 0.119041L 0.11891 3.83463e-06L 1.31721 3.83463e-06L 1.31721 1.31026Z"/>
<path id="path88_fill" d="M 68.0398 1.19122L 66.592 1.19122L 66.592 1.51367e-06L 68.0398 1.51367e-06L 68.0398 1.19122ZM 65.1451 1.19122L 63.6973 1.19122L 63.6973 1.51367e-06L 65.1451 1.51367e-06L 65.1451 1.19122ZM 62.2504 1.19122L 60.8043 1.19122L 60.8043 1.51367e-06L 62.2504 1.51367e-06L 62.2504 1.19122ZM 59.354 1.19122L 57.9079 1.19122L 57.9079 1.51367e-06L 59.354 1.51367e-06L 59.354 1.19122ZM 56.4585 1.19122L 55.0124 1.19122L 55.0124 1.51367e-06L 56.4585 1.51367e-06L 56.4585 1.19122ZM 53.563 1.19122L 52.1169 1.19122L 52.1169 1.51367e-06L 53.563 1.51367e-06L 53.563 1.19122ZM 50.6691 1.19122L 49.2214 1.19122L 49.2214 1.51367e-06L 50.6691 1.51367e-06L 50.6691 1.19122ZM 47.7728 1.19122L 46.3242 1.19122L 46.3242 1.51367e-06L 47.7728 1.51367e-06L 47.7728 1.19122ZM 44.8773 1.19122L 43.4295 1.19122L 43.4295 1.51367e-06L 44.8773 1.51367e-06L 44.8773 1.19122ZM 41.9817 1.19122L 40.5356 1.19122L 40.5356 1.51367e-06L 41.9817 1.51367e-06L 41.9817 1.19122ZM 39.0879 1.19122L 37.6409 1.19122L 37.6409 1.51367e-06L 39.0879 1.51367e-06L 39.0879 1.19122ZM 36.1915 1.19122L 34.7454 1.19122L 34.7454 1.51367e-06L 36.1915 1.51367e-06L 36.1915 1.19122ZM 33.2952 1.19122L 31.8491 1.19122L 31.8491 1.51367e-06L 33.2952 1.51367e-06L 33.2952 1.19122ZM 30.4021 1.19122L 28.9527 1.19122L 28.9527 1.51367e-06L 30.4021 1.51367e-06L 30.4021 1.19122ZM 27.5058 1.19122L 26.058 1.19122L 26.058 1.51367e-06L 27.5058 1.51367e-06L 27.5058 1.19122ZM 24.6103 1.19122L 23.1625 1.19122L 23.1625 1.51367e-06L 24.6103 1.51367e-06L 24.6103 1.19122ZM 21.7139 1.19122L 20.267 1.19122L 20.267 1.51367e-06L 21.7139 1.51367e-06L 21.7139 1.19122ZM 18.8192 1.19122L 17.3731 1.19122L 17.3731 1.51367e-06L 18.8192 1.51367e-06L 18.8192 1.19122ZM 15.9254 1.19122L 14.4776 1.19122L 14.4776 1.51367e-06L 15.9254 1.51367e-06L 15.9254 1.19122ZM 13.0298 1.19122L 11.5804 1.19122L 11.5804 1.51367e-06L 13.0298 1.51367e-06L 13.0298 1.19122ZM 10.1343 1.19122L 8.68656 1.19122L 8.68656 1.51367e-06L 10.1343 1.51367e-06L 10.1343 1.19122ZM 7.23881 1.19122L 5.79021 1.19122L 5.79021 1.51367e-06L 7.23881 1.51367e-06L 7.23881 1.19122ZM 4.34328 1.19122L 2.89386 1.19122L 2.89386 1.51367e-06L 4.34328 1.51367e-06L 4.34328 1.19122ZM 1.44693 1.19122L 2.53775e-07 1.19122L 2.53775e-07 1.51367e-06L 1.44693 1.51367e-06L 1.44693 1.19122Z"/>
<path id="path89_fill" d="M 3.07026 1.26824C 3.88603 0.972295 4.78827 1.39141 5.08431 2.19989L 5.90257 4.43767L 2.0915 5.81573L 1.27323 3.5796C 0.978853 2.76947 1.40046 1.87254 2.2129 1.57742L 3.07026 1.26824ZM 2.66777 0.165471L 1.81043 0.476303C 0.381797 0.992141 -0.353308 2.56114 0.167254 3.9797L 1.38716 7.31778L 7.41271 5.13704L 6.19113 1.79896C 5.6714 0.382882 4.09391 -0.351194 2.66777 0.165471Z"/>
<path id="path90_fill" d="M 11.5899 6.56897C 11.6889 6.83929 11.6764 7.13853 11.5534 7.39976C 11.4311 7.66098 11.2091 7.86352 10.9372 7.9619L 3.61021 10.613C 3.33746 10.7114 3.03726 10.699 2.77448 10.5766C 2.51171 10.4551 2.30881 10.2344 2.20902 9.96324L 0.066062 4.10964C -0.140167 3.54585 0.152554 2.92255 0.719684 2.71671L 8.0458 0.0655955C 8.31772 -0.0327775 8.61874 -0.0203849 8.88152 0.101961C 9.14429 0.223481 9.34803 0.444211 9.44699 0.71453L 11.5899 6.56897Z"/>
<path id="path91_fill" d="M 2.16198 2.5978C 2.0389 2.35476 1.90918 2.11089 1.77364 1.84719C 1.73372 1.76865 1.69381 1.68682 1.64973 1.60167C 1.88839 1.34954 1.98403 0.975883 1.8543 0.627031C 1.67634 0.132686 1.12668 -0.121936 0.632731 0.0574505C 0.13379 0.236837 -0.123172 0.783273 0.0581096 1.27762C 0.186171 1.62647 0.502171 1.85297 0.848935 1.89183C 0.870555 1.98359 0.89051 2.07369 0.912962 2.16049C 0.976161 2.44817 1.03853 2.71353 1.10007 2.98136C 1.16161 3.24838 1.22397 3.51292 1.28966 3.80225C 1.35702 4.09158 1.42937 4.40076 1.51169 4.7554C 1.80856 4.64876 2.02976 4.56773 2.25511 4.48672C 2.47631 4.40571 2.69917 4.3247 2.99771 4.21806C 2.82807 3.894 2.6842 3.61128 2.54949 3.34675C 2.40979 3.08553 2.28671 2.84084 2.16198 2.5978Z"/>
<path id="path92_fill" d="M 37.2792 29.4764C 37.2792 30.3204 36.584 31.0107 35.7375 31.0107L 1.54339 31.0107C 0.694358 31.0107 -5.32926e-07 30.3204 -5.32926e-07 29.4764L -5.32926e-07 1.53346C -5.32926e-07 0.68944 0.694358 -5.04556e-07 1.54339 -5.04556e-07L 35.7375 -5.04556e-07C 36.5849 -5.04556e-07 37.2792 0.690267 37.2792 1.53346L 37.2792 29.4764Z"/>
<path id="path93_fill" d="M 17.0979 31.0107C 17.9452 31.0107 18.6396 30.3204 18.6396 29.4764L 18.6396 1.53346C 18.6396 0.68944 17.9444 -5.04556e-07 17.0979 -5.04556e-07L 2.28397e-07 -5.04556e-07L 2.28397e-07 31.0107L 17.0979 31.0107Z"/>
<path id="path94_fill" d="M 27.3386 0L 0 0L 0 5.45268L 27.3386 5.45268L 27.3386 0Z"/>
<path id="path95_fill" d="M 5.14242 0L 0 0L 0 2.68335L 5.14242 2.68335L 5.14242 0Z"/>
<path id="path96_fill" d="M 5.14242 -2.47232e-06L 0 -2.47232e-06L 0 2.68336L 5.14242 2.68336L 5.14242 -2.47232e-06Z"/>
<path id="path97_fill" d="M 5.14242 -5.95376e-06L 0 -5.95376e-06L 0 2.68418L 5.14242 2.68418L 5.14242 -5.95376e-06Z"/>
<path id="path98_fill" d="M 5.14242 2.7246e-06L 0 2.7246e-06L 0 2.68418L 5.14242 2.68418L 5.14242 2.7246e-06Z"/>
<path id="path99_fill" d="M 5.14242 0L 3.1468e-06 0L 3.1468e-06 2.68335L 5.14242 2.68335L 5.14242 0Z"/>
<path id="path100_fill" d="M 5.14159 -2.47232e-06L 3.1468e-06 -2.47232e-06L 3.1468e-06 2.68336L 5.14159 2.68336L 5.14159 -2.47232e-06Z"/>
<path id="path101_fill" d="M 5.14242 -5.95376e-06L 3.1468e-06 -5.95376e-06L 3.1468e-06 2.68418L 5.14242 2.68418L 5.14242 -5.95376e-06Z"/>
<path id="path102_fill" d="M 5.14242 2.7246e-06L 3.1468e-06 2.7246e-06L 3.1468e-06 2.68418L 5.14242 2.68418L 5.14242 2.7246e-06Z"/>
<path id="path103_fill" d="M 5.01353 1.34251C 5.01353 2.08072 3.88592 2.68418 2.50635 2.68418C 1.12844 2.68418 4.31417e-07 2.08072 4.31417e-07 1.34251C 4.31417e-07 0.603467 1.12761 1.91731e-06 2.50635 1.91731e-06C 3.88509 1.91731e-06 5.01353 0.603467 5.01353 1.34251Z"/>
<path id="path104_fill" d="M 5.01269 1.34251C 5.01269 2.08072 3.88592 2.68418 2.50635 2.68418C 1.12761 2.68418 2.53775e-08 2.08072 2.53775e-08 1.34251C 2.53775e-08 0.603467 1.12678 1.91731e-06 2.50635 1.91731e-06C 3.88592 1.91731e-06 5.01269 0.603467 5.01269 1.34251Z"/>
<path id="path105_fill" d="M 5.01436 1.34251C 5.01436 2.08072 3.88592 2.68418 2.50718 2.68418C 1.12927 2.68418 -3.09605e-06 2.08072 -3.09605e-06 1.34251C -3.09605e-06 0.603467 1.12844 1.91731e-06 2.50718 1.91731e-06C 3.88592 1.91731e-06 5.01436 0.603467 5.01436 1.34251Z"/>
<path id="path106_fill" d="M 5.01353 1.3425C 5.01353 2.07989 3.88675 2.68335 2.50718 2.68335C 1.12761 2.68335 8.88211e-07 2.07989 8.88211e-07 1.3425C 8.88211e-07 0.603464 1.12761 -2.01822e-06 2.50718 -2.01822e-06C 3.88675 -2.01822e-06 5.01353 0.603464 5.01353 1.3425Z"/>
<path id="path107_fill" d="M 5.01353 1.3425C 5.01353 2.07989 3.88592 2.68335 2.50718 2.68335C 1.12844 2.68335 4.82172e-07 2.07989 4.82172e-07 1.3425C 4.82172e-07 0.603464 1.12761 -1.17108e-06 2.50718 -1.17108e-06C 3.88592 -0.000827836 5.01353 0.603464 5.01353 1.3425Z"/>
<path id="path108_fill" d="M 5.01353 1.3425C 5.01353 2.07989 3.88592 2.68335 2.50718 2.68335C 1.12761 2.68335 -3.09605e-06 2.07989 -3.09605e-06 1.3425C -3.09605e-06 0.603464 1.12678 -1.17108e-06 2.50718 -1.17108e-06C 3.88592 -0.000827836 5.01353 0.603464 5.01353 1.3425Z"/>
<path id="path109_fill" d="M 5.01353 1.3425C 5.01353 2.08071 3.88675 2.68418 2.50718 2.68418C 1.12761 2.68418 8.88211e-07 2.08071 8.88211e-07 1.3425C 8.88211e-07 0.604287 1.12761 8.07289e-07 2.50718 8.07289e-07C 3.88675 8.07289e-07 5.01353 0.605113 5.01353 1.3425Z"/>
<path id="path110_fill" d="M 5.01353 1.3425C 5.01353 2.08071 3.88592 2.68418 2.50718 2.68418C 1.12761 2.68418 4.82172e-07 2.08071 4.82172e-07 1.3425C 4.82172e-07 0.604287 1.12761 8.07289e-07 2.50718 8.07289e-07C 3.88592 0.000827472 5.01353 0.605113 5.01353 1.3425Z"/>
<path id="path111_fill" d="M 5.01353 1.3425C 5.01353 2.08071 3.88592 2.68418 2.50718 2.68418C 1.12761 2.68418 -3.09605e-06 2.08071 -3.09605e-06 1.3425C -3.09605e-06 0.604287 1.12678 8.07289e-07 2.50718 8.07289e-07C 3.88592 0.000827472 5.01353 0.605113 5.01353 1.3425Z"/>
<path id="path112_fill" d="M 5.01353 1.34333C 5.01353 2.08071 3.88675 2.68418 2.50801 2.68418C 1.12844 2.68418 9.38966e-07 2.08071 9.38966e-07 1.34333C 9.38966e-07 0.605115 1.12844 -3.12825e-06 2.50801 -3.12825e-06C 3.88675 0.000823536 5.01353 0.605115 5.01353 1.34333Z"/>
<path id="path113_fill" d="M 3.55284e-07 5.45268L 8.36225 5.45268L 13.8481 7.06378e-07L 5.48586 7.06378e-07L 3.55284e-07 5.45268Z"/>
<path id="path114_fill" d="M 5.07506 10.0903C 7.87794 10.0903 10.1501 7.83148 10.1501 5.04513C 10.1501 2.25878 7.87794 0 5.07506 0C 2.27218 0 0 2.25878 0 5.04513C 0 7.83148 2.27218 10.0903 5.07506 10.0903Z"/>
</defs>
</svg>
